<svg width="99" height="71" viewBox="0 0 99 71" fill="none" xmlns="http://www.w3.org/2000/svg">
<path d="M97.0897 16.3795L76.1911 9.31659C75.4325 9.06134 74.6094 9.46742 74.3528 10.2262C74.0963 10.985 74.5036 11.8082 75.2624 12.0646L95.9613 19.0602L86.218 23.8103C85.8134 23.5375 85.3594 23.328 84.8671 23.1994L55.642 15.5615C54.7131 10.7823 48.8288 8.7765 45.2145 12.1777C43.9636 13.3549 43.2462 15.015 43.2462 16.7324V16.7641C43.2564 18.7861 44.93 20.4312 46.9773 20.4312H52.0231C53.326 20.4312 54.6291 19.7513 55.305 18.4713L82.5592 25.5943C73.9476 29.7928 54.6156 39.2179 52.1513 40.4195C50.4117 41.2674 48.4736 41.2117 46.8487 40.4195L3.0384 19.0602L47.5628 4.01243C48.8118 3.59011 50.188 3.59011 51.437 4.01243L68.8204 9.88761C69.5794 10.1438 70.4022 9.73717 70.6588 8.978C70.9152 8.21921 70.508 7.39603 69.7492 7.13962L52.3657 1.26444C50.5175 0.640044 48.4823 0.640044 46.634 1.26444L1.91009 16.3795C-0.466053 17.1831 -0.680501 20.4741 1.57788 21.5749L24.5306 32.7653C23.2679 38.7685 21.34 45.2315 19.2446 50.9681C18.3868 53.314 19.1259 55.9238 21.0832 57.4622C27.7071 62.6683 35.5336 66.6901 43.5552 69.2752C47.3247 70.4898 51.528 70.5366 55.4438 69.2752C63.4679 66.6889 71.2952 62.6656 77.9156 57.4622C79.8801 55.9178 80.6091 53.3069 79.7542 50.9681C77.7031 45.3588 75.7489 38.8536 74.4684 32.7659L85.265 27.5021V49.3298C83.4197 49.4712 81.9605 51.0145 81.9605 52.8954V57.1217C81.9605 57.7496 82.2332 58.3136 82.6644 58.7066L82.1257 66.8517C82.0205 68.443 83.2857 69.7954 84.881 69.7954H88.55C90.1446 69.7954 91.4104 68.4436 91.3052 66.8517L90.7666 58.7066C91.1979 58.3136 91.4705 57.7498 91.4705 57.1217V52.8952C91.4705 51.0143 90.0111 49.471 88.1658 49.3296V27.4706C88.1658 27.0249 88.0956 26.5931 87.9703 26.1832L97.4219 21.5751C99.6774 20.4754 99.4697 17.1843 97.0897 16.3795ZM52.0231 17.5306H46.9773C46.5292 17.5306 46.1489 17.1729 46.1467 16.7567V16.7324C46.1467 15.798 46.5215 14.9307 47.2023 14.2899C49.2909 12.3243 52.7136 13.7392 52.8492 16.5662C52.8814 17.2432 52.4456 17.5306 52.0231 17.5306ZM75.3971 47.2399C67.5614 53.3724 56.4414 57.7594 52.6111 58.4896C51.8243 58.6397 51.3082 59.3992 51.4582 60.1858C51.6083 60.9729 52.37 61.489 53.1545 61.3387C57.1609 60.5747 68.138 56.3088 76.3785 50.142C76.5812 50.72 76.8159 51.378 77.03 51.9637C77.4554 53.1278 77.0909 54.4207 76.1233 55.1816C68.313 61.3198 60.083 64.7324 54.5541 66.5139C51.2517 67.5784 47.6649 67.5521 44.4449 66.5139C38.916 64.7322 30.686 61.3198 22.8757 55.1816C21.9083 54.4211 21.5432 53.1284 21.9692 51.9635C21.9777 51.9403 21.986 51.9167 21.9945 51.8935C22.2053 51.3161 22.4389 50.6608 22.6205 50.1416C30.6662 56.1608 41.6133 60.5324 45.8431 61.3393C46.6309 61.489 47.3895 60.9733 47.5396 60.1866C47.6896 59.3998 47.1735 58.6402 46.3869 58.4902C42.7709 57.8008 31.6128 53.5066 23.6018 47.2397C24.7797 43.6378 26.1445 39.0089 27.2173 34.0752L45.5774 43.0263C48.022 44.2183 50.8824 44.2649 53.4225 43.0263L71.7815 34.0756C72.8543 39.009 74.2191 43.638 75.3971 47.2399ZM85.0295 66.8947L85.534 59.2683H87.8966L88.4009 66.8947H85.0295ZM88.5698 52.895V56.3675H84.8611V52.895C84.8611 52.527 85.1718 52.2161 85.54 52.2161H87.8906C88.2586 52.2163 88.5698 52.527 88.5698 52.895Z" fill="#00CAAC"/>
</svg>
