<svg width="69" height="69" viewBox="0 0 69 69" fill="none" xmlns="http://www.w3.org/2000/svg">
<path d="M31.3299 52.6025C30.804 53.1279 30.804 53.9812 31.3299 54.5076C31.8569 55.0335 32.7097 55.0335 33.2351 54.5076C33.762 53.9812 33.762 53.1279 33.2351 52.6025C32.7097 52.0755 31.8569 52.0755 31.3299 52.6025Z" fill="#00CAAC"/>
<path d="M65.8892 50.2618L55.6576 41.5615C55.6102 41.5215 55.5602 41.4847 55.508 41.4515C52.8238 39.7427 49.3773 40.1212 47.1268 42.3712L41.5482 47.9492C41.1618 48.3361 40.5854 48.4503 40.08 48.2419C33.7808 45.6361 28.606 41.7131 24.6994 36.5831C21.7203 32.6712 20.6464 29.5626 20.5048 29.1247C20.4879 29.0309 20.4611 28.9378 20.4232 28.8467C20.2142 28.3413 20.3284 27.7659 20.7159 27.3795L26.2939 21.7999C28.5444 19.5494 28.9224 16.1029 27.2136 13.4187C27.1999 13.3971 27.1857 13.376 27.1709 13.355L19.782 3.08699C17.4573 -0.519567 12.3936 -1.06442 9.3545 1.97412L8.23742 3.0912C8.2369 3.09226 8.23584 3.09331 8.23479 3.09384L4.24657 7.08205C-0.509183 11.8383 -1.28724 18.9851 1.99714 27.7512C4.81037 35.2602 10.4421 43.4782 17.8547 50.8909C25.4427 58.4788 33.8829 64.2148 41.6203 67.0422C49.2788 69.8402 57.4253 70.185 63.1913 64.4185L66.9526 60.6577C69.978 57.6318 69.45 52.6012 65.8892 50.2618ZM53.9877 43.6788L64.2104 52.3717C64.2573 52.4117 64.3073 52.4486 64.3594 52.4817C66.543 53.872 66.8736 56.9253 65.0464 58.752L64.7674 59.0316L47.3316 45.9772L49.0325 44.2768C50.3617 42.9471 52.3874 42.7065 53.9877 43.6788ZM17.5305 4.56783C17.5441 4.58942 17.5584 4.611 17.5731 4.63153L24.9589 14.8958C25.9623 16.502 25.7301 18.5524 24.3882 19.8943L22.74 21.543L10.9438 4.19618L11.2602 3.87979C13.0948 2.04519 16.1454 2.39211 17.5305 4.56783ZM42.5448 64.5106C35.1684 61.8153 27.0767 56.3015 19.7604 48.9852C12.6136 41.8389 7.20141 33.962 4.52031 26.8057C2.50778 21.4341 1.15749 13.9825 6.15224 8.98825L9.0039 6.13606L20.8001 23.4829L18.8107 25.4733C17.6789 26.6031 17.323 28.275 17.8879 29.7637C18.3133 31.5094 20.2705 35.1328 22.2452 37.8028C25.151 41.7321 30.4253 47.1643 39.0498 50.7324C40.5654 51.3594 42.2936 51.0151 43.4539 49.8554L45.4064 47.9023L62.8422 60.9567L61.2856 62.5128C55.9313 67.8676 48.1391 66.5547 42.5448 64.5106Z" fill="#00CAAC"/>
<path d="M28.801 49.3851C27.3775 48.1369 24.9154 45.9902 23.6188 44.6562C20.4392 41.3887 17.1032 37.4278 15.1197 34.5662C14.6959 33.9544 13.8562 33.8018 13.2445 34.2261C12.6328 34.6499 12.4807 35.4895 12.9044 36.1012C15.406 39.7104 19.0816 43.8576 21.6868 46.535C23.0556 47.9437 25.5387 50.1095 27.0238 51.4113C27.5823 51.9009 28.4335 51.8472 28.9258 51.2866C29.4164 50.7275 29.3606 49.8757 28.801 49.3851Z" fill="#00CAAC"/>
</svg>
