<svg width="74" height="69" viewBox="0 0 74 69" fill="none" xmlns="http://www.w3.org/2000/svg">
<path d="M36.1015 0.39003C35.8848 0.621117 28.2011 10.1246 19.0298 21.5202L2.33367 42.2315V54.0314V65.8169L1.45265 65.9036C0.340537 66.0047 0.0227903 66.2647 0.0227903 67.0879C0.0227903 68.2578 -1.23375 68.1711 14.9135 68.1711C30.7431 68.1711 30.1076 68.2 32.1296 67.2468C35.5237 65.6725 37.748 62.4806 38.109 58.711L38.1957 57.801L38.8601 57.6999C42.6153 57.18 46.3271 54.9124 48.3925 51.8794C49.9812 49.5396 50.7034 47.2865 50.8189 44.4124C51.0644 37.9997 47.6414 30.9948 40.8243 23.9899C38.4123 21.5057 37.5602 20.798 36.9969 20.798C36.4914 20.798 35.6682 21.448 33.8195 23.2822C27.8112 29.2327 24.1426 35.5877 23.2761 41.5815C23.0305 43.2136 23.1605 45.9722 23.5505 47.4454C24.7926 52.1394 28.4611 55.909 33.1118 57.2378C33.7761 57.44 34.6716 57.6422 35.0904 57.6999C35.9426 57.8155 35.957 57.8299 35.6826 59.3031C35.1627 62.1051 32.924 64.6326 30.1798 65.4992L29.0388 65.8602H19.1454H9.26632V55.3168V44.7734L23.1027 27.5862C30.6998 18.1405 36.9536 10.4135 36.9969 10.4135C37.0403 10.4135 39.8711 13.8943 43.2796 18.1405C46.7026 22.4012 49.6201 25.9686 49.779 26.0842C50.4867 26.5897 51.5844 26.0264 51.5844 25.1454C51.5844 24.7987 51.2522 24.2932 50.0967 22.8634C49.2735 21.8379 46.3127 18.1549 43.4963 14.6597C40.6943 11.1645 38.1957 8.08816 37.9646 7.82819C37.618 7.46711 37.4013 7.36601 36.9969 7.36601C36.5925 7.36601 36.3759 7.46711 36.0292 7.82819C35.7982 8.08816 29.1544 16.3062 21.2685 26.0986L6.95544 43.8924V54.8691V65.8602H5.8H4.64456V54.4791V43.1125L20.763 23.1089C29.631 12.1033 36.9392 3.10532 36.9969 3.10532C37.0547 3.10532 44.3629 12.1033 53.2309 23.1089L69.3493 43.1125V54.4791V65.8602H68.1939H67.0384V54.8691V43.8924L60.8135 36.1365C57.3905 31.8758 54.4297 28.2362 54.2275 28.0484C53.7942 27.644 53.1876 27.644 52.682 28.034C52.2343 28.3806 52.1765 29.0739 52.5521 29.6083C52.6965 29.8105 55.484 33.3057 58.7626 37.3642L64.7275 44.7734V55.3168V65.8602H51.4544C42.6153 65.8602 38.0368 65.9036 37.7768 66.0047C36.9825 66.308 36.7658 67.1168 37.3002 67.7956L37.5891 68.1711H55.4696C75.5453 68.1711 73.9711 68.2578 73.9711 67.1023C73.9711 66.2647 73.6533 66.0047 72.5412 65.9036L71.6602 65.8169V54.0314V42.2315L54.964 21.5202C45.7927 10.1246 38.109 0.621117 37.8924 0.39003C37.618 0.101173 37.3869 6.86646e-05 36.9969 6.86646e-05C36.607 6.86646e-05 36.3759 0.101173 36.1015 0.39003ZM35.8415 28.8428V33.0024L33.8195 30.9804L31.8119 28.9728L32.6207 28.034C33.3862 27.1385 35.7115 24.6976 35.7982 24.6976C35.827 24.6976 35.8415 26.5608 35.8415 28.8428ZM41.1132 27.7451L42.182 28.9872L40.1599 30.9948L38.1524 33.0024V28.8139V24.6399L39.1056 25.5642C39.6256 26.0842 40.521 27.0663 41.1132 27.7451ZM35.8415 38.7074V41.076L33.4873 38.7363C31.4219 36.6853 31.0753 36.3965 30.6564 36.3965C30.0354 36.3965 29.4866 36.9453 29.4866 37.5808C29.4866 37.9852 29.8332 38.3896 32.664 41.2349L35.8415 44.4268V46.7955V49.1786L31.0031 44.3401C25.4858 38.8374 25.948 39.5739 26.7424 37.4942C27.3345 35.9487 28.4322 33.869 29.4866 32.2225L30.3676 30.8648L33.1118 33.5945L35.8415 36.3243V38.7074ZM44.5073 32.2369C44.9839 32.9735 45.3739 33.6379 45.3739 33.7245C45.3739 33.7967 43.7563 35.501 41.7631 37.4797L38.1524 41.0905V38.7074V36.3243L40.8532 33.6234C42.3408 32.1213 43.5829 30.9081 43.6118 30.9081C43.6263 30.9081 44.0451 31.5003 44.5073 32.2369ZM47.237 37.4653C47.5692 38.303 47.8292 39.0973 47.8292 39.2418C47.8292 39.4006 45.8216 41.5093 42.9908 44.3401L38.1524 49.1786V46.7955V44.4124L42.3697 40.195C44.6951 37.8697 46.616 35.9632 46.6304 35.9632C46.6449 35.9632 46.9193 36.642 47.237 37.4653ZM30.7431 47.4021L35.8415 52.5005V53.9881V55.4757L35.3071 55.3891C30.8009 54.6525 27.0024 51.2295 25.8036 46.8677C25.5436 45.9144 25.327 42.3181 25.5292 42.3181C25.6014 42.3181 27.9556 44.6146 30.7431 47.4021ZM48.508 44.1524C48.4214 46.2755 48.1903 47.2576 47.3815 48.9186C45.7638 52.2983 42.4419 54.768 38.7012 55.3891L38.1524 55.4757V53.9881V52.5005L43.2363 47.4165C46.0383 44.6146 48.3925 42.3181 48.4647 42.3181C48.5369 42.3181 48.5513 43.1269 48.508 44.1524Z" fill="#17C5A8"/>
</svg>
