<svg width="85" height="83" viewBox="0 0 85 83" fill="none" xmlns="http://www.w3.org/2000/svg">
<path d="M83.7952 10.1704C83.7454 10.1236 73.9002 0.734373 73.9002 0.734373C73.5238 0.373243 73.1345 0 72.4077 0H32.7718C31.6141 0 30.6722 0.941785 30.6722 2.09949V8.54662L16.7026 10.9413C15.5828 11.1377 14.8298 12.2093 15.0238 13.3279L15.7328 17.4617C11.1922 18.9897 6.53038 20.5649 2.03001 22.1815C0.966596 22.5703 0.408531 23.7527 0.787995 24.8225L9.74011 49.708C9.92018 50.2088 10.3921 50.5206 10.8955 50.5206C11.0334 50.5206 11.1738 50.4972 11.311 50.4478C11.9491 50.2183 12.2803 49.515 12.0508 48.8769L3.2311 24.3594C7.47102 22.8414 11.8619 21.3556 16.153 19.9112L20.3718 44.5068L25.2263 72.8327C25.4016 73.8326 26.2805 74.5441 27.2726 74.5441C27.3849 74.5441 27.4988 74.5349 27.6131 74.5161L40.7611 72.2598L51.0351 70.4986L35.583 76.0526L23.3977 80.4338L13.9343 54.1121C13.705 53.474 13.0019 53.1428 12.3636 53.3722C11.7255 53.6015 11.3943 54.3048 11.6237 54.9429L21.2213 81.6386C21.5282 82.4781 22.3235 83 23.1641 83C23.3964 83 23.6323 82.9601 23.8621 82.8761L36.4134 78.3634L64.9132 68.1199L70.3578 67.1866H82.3852C83.5429 67.1866 84.4849 66.2427 84.4849 65.0824V11.5538C84.485 10.819 84.0863 10.4441 83.7952 10.1704ZM80.5423 10.4611H74.3985L74.2462 10.4618C73.952 10.4637 73.2634 10.4688 73.0887 10.2953C73.0484 10.2552 73.0013 10.1213 73.0013 9.87261L72.987 3.25655L80.5423 10.4611ZM82.0295 64.7307H33.1277V40.8027C33.1277 40.1246 32.578 39.5749 31.9 39.5749C31.2219 39.5749 30.6722 40.1246 30.6722 40.8027V65.082C30.6722 66.2422 31.6141 67.1863 32.7718 67.1863H55.8232L40.3459 69.8392L27.58 72.0301L22.792 44.0917L17.5095 13.2942L30.672 11.0379V35.1058C30.672 35.7839 31.2217 36.3336 31.8998 36.3336C32.5779 36.3336 33.1276 35.7839 33.1276 35.1058V2.45539H70.5297L70.5457 9.8754C70.5457 10.7748 70.8193 11.5023 71.3587 12.0379C72.1875 12.8609 73.3591 12.9182 74.0865 12.9182C74.149 12.9182 74.2083 12.9177 74.2637 12.9173L82.0295 12.9168V64.7307Z" fill="#07C1A2"/>
<path d="M39.0469 19.064C39.0469 19.742 39.5966 20.2917 40.2746 20.2917H75.3785C76.0566 20.2917 76.6063 19.742 76.6063 19.064C76.6063 18.3859 76.0566 17.8362 75.3785 17.8362H40.2746C39.5966 17.8362 39.0469 18.3859 39.0469 19.064Z" fill="#07C1A2"/>
<path d="M75.3785 26.5588H40.2746C39.5966 26.5588 39.0469 27.1086 39.0469 27.7866C39.0469 28.4647 39.5966 29.0144 40.2746 29.0144H75.3785C76.0566 29.0144 76.6063 28.4647 76.6063 27.7866C76.6063 27.1086 76.0566 26.5588 75.3785 26.5588Z" fill="#07C1A2"/>
<path d="M75.3785 35.281H40.2746C39.5966 35.281 39.0469 35.8307 39.0469 36.5088C39.0469 37.1868 39.5966 37.7366 40.2746 37.7366H75.3785C76.0566 37.7366 76.6063 37.1868 76.6063 36.5088C76.6063 35.8307 76.0566 35.281 75.3785 35.281Z" fill="#07C1A2"/>
<path d="M75.3785 44.0037H40.2746C39.5966 44.0037 39.0469 44.5534 39.0469 45.2314C39.0469 45.9095 39.5966 46.4592 40.2746 46.4592H75.3785C76.0566 46.4592 76.6063 45.9095 76.6063 45.2314C76.6063 44.5534 76.0566 44.0037 75.3785 44.0037Z" fill="#07C1A2"/>
<path d="M75.3785 52.7266H40.2746C39.5966 52.7266 39.0469 53.2763 39.0469 53.9543C39.0469 54.6324 39.5966 55.1821 40.2746 55.1821H75.3785C76.0566 55.1821 76.6063 54.6324 76.6063 53.9543C76.6063 53.2763 76.0566 52.7266 75.3785 52.7266Z" fill="#07C1A2"/>
</svg>
