<svg width="84" height="84" viewBox="0 0 84 84" fill="none" xmlns="http://www.w3.org/2000/svg">
<path d="M8.32678 38.7041C8.49123 37.6117 8.97609 36.5927 9.71998 35.776L21.8792 22.4012H24.4474L20.0443 30.1065L22.4756 31.4956L26.9907 23.5934L32.7205 31.6148L34.999 29.9873L29.5806 22.4012H31.8408L35.3632 26.2758L37.4353 24.3923L34.1414 20.7698L39.3124 10.4275C39.4096 10.2331 39.4603 10.0188 39.4602 9.80139V7.00144C39.4602 6.63014 39.3127 6.27405 39.0502 6.01151C38.7876 5.74896 38.4315 5.60146 38.0602 5.60146H15.6598C15.2885 5.60146 14.9324 5.74896 14.6698 6.01151C14.4072 6.27405 14.2597 6.63014 14.2597 7.00144V9.80139C14.2597 10.0188 14.3104 10.2331 14.4076 10.4275L19.5786 20.7698L7.64794 33.8927C6.53198 35.1177 5.8047 36.6464 5.55823 38.2851L4.81481 43.1908L7.58336 43.6108L8.32678 38.7041ZM17.0598 8.40141H36.6602V9.47082L31.5949 19.6012H22.1253L17.0598 9.47082V8.40141Z" fill="#00CAAC"/>
<path d="M4.15398 79.2513C3.62798 78.6401 3.24032 77.9224 3.01756 77.1474C2.79479 76.3724 2.74218 75.5584 2.86333 74.7612L7.15914 46.4107L4.39111 45.9907L0.0947746 74.3419C-0.0863997 75.5377 -0.00718982 76.7586 0.326988 77.921C0.661165 79.0834 1.24243 80.1599 2.03103 81.0769C2.81964 81.9939 3.79698 82.7299 4.89624 83.2344C5.9955 83.7388 7.19075 84 8.40026 84H37.7993V81.2001H8.40026C7.59384 81.2004 6.79688 81.0265 6.06396 80.6901C5.33105 80.3537 4.67951 79.8629 4.15398 79.2513Z" fill="#00CAAC"/>
<path d="M49.3295 45.9907L46.5608 46.4107L50.8566 74.7616C50.9773 75.5587 50.9245 76.3726 50.7017 77.1475C50.4789 77.9223 50.0914 78.64 49.5657 79.2513C49.04 79.8626 48.3885 80.3532 47.6557 80.6896C46.9229 81.0259 46.1261 81.2 45.3198 81.2001H40.5993V84H45.3198C46.5294 84 47.7246 83.7388 48.8239 83.2344C49.9231 82.7299 50.9005 81.9939 51.6891 81.0769C52.4777 80.1599 53.0589 79.0834 53.3931 77.921C53.7273 76.7586 53.8065 75.5377 53.6253 74.3419L49.3295 45.9907Z" fill="#00CAAC"/>
<path d="M32.1991 67.2006H20.9989V70.0006H32.1991V67.2006Z" fill="#00CAAC"/>
<path d="M37.7992 72.8005H15.3988V75.6005H37.7992V72.8005Z" fill="#00CAAC"/>
<path d="M43.3993 51.3523C42.4417 47.6984 38.6411 45.3889 34.9778 45.5464C35.2151 45.5363 35.5925 43.5515 35.6379 43.2769C35.7948 42.3564 35.7993 41.4164 35.651 40.4945C35.405 38.948 34.6823 37.5169 33.5837 36.4009C34.1574 37.7535 34.4033 39.2226 34.3012 40.6884C34.2484 41.5335 34.0569 42.3641 33.7344 43.1471C33.6708 43.3046 32.6843 45.0829 32.6493 45.0475C31.4584 43.8075 29.9152 42.9632 28.2286 42.629C26.5421 42.2948 24.7935 42.4868 23.2196 43.1789C22.1752 43.6397 21.4477 44.4063 20.5323 45.0125C18.4718 42.7621 18.5197 39.0626 19.6144 36.4011C19.3771 36.9786 18.6625 37.5309 18.3498 38.1218C17.9852 38.8135 17.7252 39.5555 17.5784 40.3235C17.2233 42.1734 17.6299 43.7919 18.2012 45.5298C14.512 45.7381 10.8161 47.4672 9.7988 51.3525C9.94248 50.8046 10.9969 50.04 11.4479 49.683C12.1175 49.1512 12.8589 48.7167 13.6501 48.3922C15.2493 47.733 17.0175 47.6032 18.6958 48.0218C18.3661 48.9347 18.1979 49.898 18.1988 50.8686C18.1988 54.3525 20.4017 57.444 23.613 58.7225C23.1369 60.0609 21.9904 61.156 20.8415 61.9409C19.9796 62.5295 17.8817 63.7491 16.7834 63.4499C18.3423 63.8483 19.9875 63.7425 21.4826 63.1476C22.4386 62.7736 23.3199 62.2314 24.0849 61.5468C24.2896 61.3642 25.8825 59.238 25.9203 59.2412C26.1441 59.2593 26.3703 59.2684 26.599 59.2685C27.3597 59.2685 27.299 59.2928 27.6946 59.9203C28.0122 60.4048 28.3845 60.8511 28.804 61.2505C30.7717 63.183 33.7013 64.1896 36.4138 63.4504C35.3813 63.7318 33.3315 62.5602 32.4869 62.0063C31.326 61.2449 30.0992 60.077 29.5976 58.7554C31.0593 57.8629 32.3921 57.2014 33.4327 55.7481C34.2229 54.643 34.7331 53.3626 34.9192 52.0168C35.1054 50.6711 34.9621 49.3003 34.5016 48.0221C34.447 47.8708 37.2383 47.8071 37.4334 47.8296C39.8339 48.1133 41.9357 49.4604 43.3993 51.3523ZM26.599 51.9407C26.4768 51.5697 26.3331 51.2061 26.1688 50.8518C26.3121 50.86 26.4554 50.8652 26.599 50.8676L27.0324 50.8447C26.8667 51.2012 26.722 51.5672 26.599 51.9407ZM30.5505 46.9039C30.3979 47.0019 30.2478 47.1044 30.0955 47.2038C28.9367 47.8111 27.6386 48.1031 26.3313 48.0504C25.0241 47.9978 23.7536 47.6024 22.6474 46.9039C23.6957 45.8565 25.117 45.2682 26.599 45.2682C28.0809 45.2682 29.5022 45.8565 30.5505 46.9039ZM20.9988 50.8686C20.9988 50.1209 20.9175 49.0011 21.7743 49.6298C22.3234 50.0323 22.7879 50.6474 23.1568 51.2121C24.0854 52.6309 24.5148 54.3187 24.3769 56.0088C23.3743 55.5743 22.5205 54.8563 21.9203 53.9431C21.3202 53.0299 20.9999 51.9613 20.9988 50.8686ZM28.8351 55.991C28.615 54.6542 28.9417 53.2692 29.5385 52.07C29.8326 51.4775 30.1984 50.9233 30.6275 50.4199C30.7131 50.3198 31.9469 49.2055 31.9486 49.2107C32.1151 49.7476 32.1995 50.3065 32.1991 50.8686C32.1991 52.9784 30.8773 55.2463 28.8351 55.991Z" fill="#00CAAC"/>
<path d="M73.5474 3.45066L72.0522 5.81802C76.2753 8.48328 79.3221 12.6596 80.5707 17.4947C81.8194 22.3298 81.1758 27.4591 78.7712 31.8358C76.3667 36.2125 72.3825 39.5067 67.6318 41.046C62.8811 42.5854 57.722 42.2538 53.2075 40.119C52.9485 39.996 52.658 39.9555 52.3753 40.003L42.573 41.6497L44.9356 33.6082C44.9902 33.4223 45.0057 33.227 44.9809 33.0348C44.9562 32.8426 44.8918 32.6576 44.7919 32.4916C42.6555 28.9281 41.7062 24.7781 42.081 20.6402C42.4558 16.5024 44.1354 12.5905 46.8774 9.46891C49.6194 6.34732 53.2822 4.17736 57.3373 3.27205C61.3925 2.36674 65.6304 2.77288 69.4397 4.43187L70.5598 1.86606C66.2548 -0.0100692 61.4692 -0.486341 56.8789 0.504523C52.2887 1.49539 48.1257 3.90331 44.9781 7.38816C41.8304 10.873 39.8572 15.2587 39.3372 19.9256C38.8172 24.5926 39.7766 29.305 42.0799 33.3972L39.2559 43.0063C39.189 43.2339 39.181 43.4748 39.2328 43.7064C39.2845 43.9379 39.3943 44.1525 39.5518 44.33C39.7093 44.5075 39.9092 44.6421 40.133 44.7211C40.3567 44.8001 40.5969 44.8209 40.8309 44.7816L52.4119 42.836C55.2992 44.139 58.4319 44.8089 61.5996 44.8009C66.4561 44.8004 71.181 43.2218 75.0624 40.3029C78.9438 37.384 81.7716 33.2829 83.1196 28.6174C84.4677 23.9518 84.2631 18.9746 82.5366 14.4355C80.8102 9.89634 77.6553 6.04114 73.5474 3.45066Z" fill="#00CAAC"/>
<path d="M69.9999 9.80139C67.1447 9.80139 64.7818 12.486 64.4417 15.9419L61.8743 15.4284C61.693 15.3922 61.5064 15.3922 61.3251 15.4284L58.7576 15.9419C58.4176 12.486 56.0547 9.80139 53.1995 9.80139C50.1116 9.80139 47.5994 12.9415 47.5994 16.8013C47.5997 17.2537 47.6348 17.7055 47.7044 18.1526L47.3257 18.2284C47.0082 18.2917 46.7224 18.4631 46.517 18.7134C46.3117 18.9637 46.1994 19.2774 46.1994 19.6012V29.401C46.1994 29.7021 46.2964 29.9952 46.4761 30.2367C46.6558 30.4783 46.9085 30.6555 47.1969 30.742L61.1972 34.942C61.4597 35.0207 61.7396 35.0207 62.0022 34.942L76.0025 30.742C76.2908 30.6555 76.5436 30.4783 76.7233 30.2367C76.903 29.9952 77 29.7021 77 29.401V19.6012C77 19.2776 76.8879 18.9639 76.6827 18.7136C76.4775 18.4633 76.1919 18.2918 75.8745 18.2284L75.4958 18.1526C75.5651 17.7055 75.5999 17.2537 75.6 16.8013C75.6 12.9415 73.0878 9.80139 69.9999 9.80139ZM69.9999 12.6013C71.5177 12.6013 72.7999 14.5247 72.7999 16.8013C72.8001 17.0694 72.7826 17.3372 72.7474 17.6029L67.208 16.495C67.3162 14.3548 68.5507 12.6013 69.9999 12.6013ZM50.3995 16.8013C50.3995 14.5247 51.6817 12.6013 53.1995 12.6013C54.6487 12.6013 55.8832 14.3548 55.9919 16.495L50.452 17.6029C50.4168 17.3372 50.3993 17.0694 50.3995 16.8013ZM74.1999 28.3595L61.5997 32.1394L48.9994 28.3595V20.749L61.5997 18.2291L74.1999 20.749V28.3595Z" fill="#00CAAC"/>
<path d="M56.3391 21.043L55.6601 23.7593L61.2602 25.1593C61.4831 25.215 61.7163 25.215 61.9392 25.1593L67.5393 23.7593L66.8603 21.043L61.5997 22.3581L56.3391 21.043Z" fill="#00CAAC"/>
<path d="M64.3997 26.6011H58.7996V29.401H64.3997V26.6011Z" fill="#00CAAC"/>
</svg>
