<svg width="68" height="67" viewBox="0 0 68 67" fill="none" xmlns="http://www.w3.org/2000/svg">
<path d="M58.0417 9.81184C51.6198 3.48465 43.0817 0 34 0C24.9183 0 16.3802 3.48465 9.95828 9.81184C3.53666 16.1393 0 24.5518 0 33.5C0 42.4482 3.53666 50.8607 9.95828 57.1882C16.3802 63.5153 24.9183 67 34 67C43.0817 67 51.6198 63.5153 58.0417 57.1882C64.4633 50.8607 68 42.4482 68 33.5C68 24.5518 64.4633 16.1393 58.0417 9.81184ZM56.633 55.8001C50.5875 61.7567 42.5497 65.0371 34 65.0371C25.4503 65.0371 17.4125 61.7567 11.367 55.8001C5.32153 49.8436 1.99219 41.9239 1.99219 33.5C1.99219 25.0761 5.32153 17.1564 11.367 11.1999C17.4125 5.24327 25.4503 1.96289 34 1.96289C42.5497 1.96289 50.5875 5.24327 56.633 11.1999C62.6785 17.1564 66.0078 25.0761 66.0078 33.5C66.0078 41.9239 62.6785 49.8436 56.633 55.8001Z" fill="#00CAAC"/>
<path d="M55.0306 12.7789C49.4133 7.24404 41.9445 4.1958 34.0003 4.1958C26.8798 4.1958 19.9866 6.72113 14.5907 11.3064C14.174 11.6604 14.1277 12.2802 14.4869 12.6907C14.8462 13.1012 15.4752 13.1468 15.8918 12.7929C20.9262 8.51482 27.3571 6.15869 34.0003 6.15869C41.9645 6.15869 49.1546 9.48278 54.2199 14.7954L44.5477 23.1194C44.5665 22.8656 44.5781 22.6107 44.5781 22.3544C44.5781 19.3204 43.2335 16.441 40.8893 14.4545C40.5133 14.1359 39.9564 14.1384 39.5833 14.4605C39.2103 14.7827 39.1347 15.3263 39.406 15.7355C40.0935 16.7722 40.4568 17.9728 40.4568 19.2073C40.4568 20.7015 39.93 22.0758 39.0515 23.1627C37.4842 22.4194 35.7521 22.0285 34.0004 22.0285C32.2505 22.0285 30.5164 22.4203 28.9497 23.1632C28.071 22.0763 27.544 20.7018 27.544 19.2073C27.544 17.9727 27.9074 16.7722 28.5948 15.7355C28.8662 15.3263 28.7906 14.7827 28.4175 14.4605C28.0444 14.1385 27.4877 14.1357 27.1116 14.4545C24.7672 16.441 23.4227 19.3204 23.4227 22.3544C23.4227 24.7278 24.2376 26.9762 25.6696 28.7787C23.4611 28.5202 21.1701 28.9523 19.1282 30.1138C16.4615 31.6309 14.6029 34.2178 14.0293 37.2115C13.9372 37.6917 14.2179 38.1657 14.6876 38.3229C15.1575 38.4802 15.6728 38.2729 15.8969 37.8367C16.4641 36.7319 17.3378 35.8215 18.423 35.2041C19.6409 34.5113 21.0226 34.2337 22.3946 34.3933C22.5605 36.5325 23.3175 38.549 24.6086 40.2798L12.4694 50.7269C8.58383 46.0216 6.25098 40.0244 6.25098 33.4999C6.25098 26.9545 8.64227 20.6181 12.9843 15.6576C13.3436 15.2471 13.2971 14.6274 12.8806 14.2734C12.4639 13.9194 11.8351 13.9652 11.4757 14.3756C6.8218 19.6923 4.25879 26.4842 4.25879 33.4999C4.25879 41.3273 7.35239 48.6863 12.9698 54.221C18.5873 59.7558 26.056 62.8039 34.0002 62.8039C41.1208 62.8039 48.0139 60.2786 53.4099 55.6933C53.8265 55.3393 53.8729 54.7196 53.5136 54.3091C53.1542 53.8986 52.5254 53.8528 52.1087 54.2069C47.0744 58.4849 40.6433 60.841 34.0002 60.841C26.0359 60.841 18.8459 57.5169 13.7805 52.2043L28.0589 39.916C28.1623 40.723 28.1073 41.5501 27.8871 42.3596C27.4407 44.0009 26.3723 45.3727 24.8789 46.2223C23.7936 46.8397 22.5565 47.1295 21.3018 47.0617C20.8064 47.0346 20.3666 47.371 20.2699 47.8504C20.1732 48.3297 20.4494 48.8062 20.9176 48.9679C22.0614 49.3627 23.2489 49.5578 24.4308 49.5578C26.2642 49.5578 28.0842 49.0882 29.7055 48.1657C31.6317 47.07 33.1031 45.4313 33.9992 43.5337C34.8952 45.4309 36.3669 47.0693 38.2944 48.1657C39.916 49.0883 41.7356 49.5579 43.5692 49.5578C44.7509 49.5578 45.9387 49.3627 47.0823 48.9679C47.5505 48.8063 47.8266 48.3298 47.73 47.8504C47.6334 47.3709 47.1947 47.0347 46.6981 47.0617C45.4433 47.1297 44.2063 46.8397 43.1211 46.2223C41.8599 45.505 40.9036 44.4143 40.3673 43.1041C43.4115 41.1477 45.3293 37.9608 45.6062 34.393C46.9779 34.2337 48.3596 34.5112 49.5775 35.204C50.6627 35.8214 51.5363 36.7318 52.1036 37.8366C52.3276 38.2728 52.8431 38.48 53.3128 38.3228C53.7826 38.1656 54.0632 37.6917 53.9712 37.2114C53.3976 34.2178 51.539 31.6307 48.8722 30.1137C46.8563 28.967 44.5731 28.5118 42.2692 28.7975C41.6909 28.8692 41.1204 28.9899 40.5635 29.1541L55.5311 16.2728C59.4164 20.9781 61.7492 26.9751 61.7492 33.4998C61.7492 40.0453 59.358 46.3817 55.016 51.3421C54.6567 51.7526 54.7032 52.3723 55.1197 52.7263C55.3079 52.8862 55.5394 52.9645 55.7699 52.9645C56.0496 52.9645 56.3277 52.8491 56.5246 52.624C61.1784 47.3074 63.7414 40.5156 63.7414 33.4997C63.7418 25.6726 60.6481 18.3136 55.0306 12.7789ZM37.4118 24.6048C36.4212 25.2148 35.2522 25.5689 34.0003 25.5689C32.7484 25.5689 31.5794 25.2148 30.5887 24.6048C31.6734 24.202 32.8323 23.9914 34.0003 23.9914C35.1694 23.9916 36.3273 24.202 37.4118 24.6048ZM25.6419 20.4249C26.2416 24.4399 29.7614 27.5318 34.0003 27.5318C38.2391 27.5318 41.7589 24.44 42.3587 20.4249C42.5084 21.0517 42.586 21.6986 42.586 22.3544C42.586 23.3517 42.411 24.3267 42.0677 25.2537L36.4082 30.1243C35.7263 29.6507 34.896 29.3714 34.0003 29.3714C32.9564 29.3714 32.0012 29.7504 31.2669 30.3749C30.8129 30.2247 30.3707 30.0378 29.9484 29.8145C27.1518 28.3366 25.4146 25.478 25.4146 22.3544C25.4146 21.6986 25.4921 21.0517 25.6419 20.4249ZM36.1981 33.4999C36.1981 34.694 35.2122 35.6654 34.0003 35.6654C33.7108 35.6654 33.4348 35.6086 33.1814 35.5078L36.1291 32.9709C36.1724 33.1406 36.1981 33.3172 36.1981 33.4999ZM31.8025 33.4999C31.8025 32.3058 32.7884 31.3345 34.0003 31.3345C34.2898 31.3345 34.5658 31.3913 34.8192 31.492L31.8714 34.029C31.8281 33.8593 31.8025 33.6826 31.8025 33.4999ZM18.5437 32.9706C19.0193 32.5301 19.5484 32.1412 20.124 31.8137C23.2697 30.0242 27.1434 30.3649 29.9044 32.6315C29.8433 32.9117 29.8103 33.202 29.8103 33.4998C29.8103 34.1838 29.981 34.8288 30.2811 35.3975L28.9583 36.536C27.8293 34.6184 26.0118 33.2465 23.8376 32.6725C22.0618 32.2038 20.2215 32.3129 18.5437 32.9706ZM26.1161 38.982C25.2549 37.7843 24.6958 36.4279 24.4679 34.9885C25.6238 35.5377 26.5866 36.4135 27.2423 37.5325C27.3053 37.6402 27.364 37.7495 27.4202 37.8596L26.1161 38.982ZM28.7098 46.4659C28.1341 46.7934 27.5278 47.0504 26.9028 47.2361C28.3198 46.1332 29.3358 44.6176 29.8116 42.8678C30.2134 41.3905 30.1969 39.8681 29.7804 38.4349L31.5924 36.8755C31.9661 37.1351 32.3846 37.3358 32.8342 37.4644C33.5582 40.9941 31.9037 44.649 28.7098 46.4659ZM39.9006 41.0267C39.8375 39.8145 40.1279 38.6086 40.7583 37.5325C41.4143 36.4131 42.3774 35.537 43.534 34.9878C43.154 37.3935 41.8612 39.5407 39.9006 41.0267ZM47.8765 31.8137C48.4522 32.1411 48.9814 32.5301 49.4569 32.9705C47.7791 32.3126 45.9388 32.2036 44.163 32.6725C41.9831 33.2479 40.1613 34.6255 39.033 36.551C37.9046 38.4766 37.6048 40.72 38.1889 42.8678C38.6648 44.6176 39.6807 46.1332 41.0978 47.236C40.4729 47.0504 39.8664 46.7933 39.2907 46.4659C36.0946 44.6477 34.4422 40.9948 35.1667 37.4643C36.911 36.9652 38.1903 35.3775 38.1903 33.4999C38.1903 33.2025 38.1575 32.9124 38.0964 32.6326C40.8288 30.3992 44.7691 30.0462 47.8765 31.8137Z" fill="#00CAAC"/>
</svg>
