<svg width="93" height="67" viewBox="0 0 93 67" fill="none" xmlns="http://www.w3.org/2000/svg">
<path d="M21.7004 48.2251C16.5714 48.2251 12.4004 52.3961 12.4004 57.5251C12.4004 62.6541 16.5714 66.8251 21.7004 66.8251C26.8294 66.8251 31.0004 62.6541 31.0004 57.5251C31.0004 52.3961 26.8292 48.2251 21.7004 48.2251ZM21.7004 63.725C18.281 63.725 15.5005 60.9443 15.5005 57.5251C15.5005 54.1057 18.2812 51.3252 21.7004 51.3252C25.1196 51.3252 27.9003 54.1059 27.9003 57.5251C27.9003 60.9443 25.1196 63.725 21.7004 63.725Z" fill="#07C1A2"/>
<path d="M74.3996 48.2251C69.2706 48.2251 65.0996 52.3961 65.0996 57.5251C65.0996 62.6541 69.2706 66.8251 74.3996 66.8251C79.5286 66.8251 83.6996 62.6541 83.6996 57.5251C83.6996 52.3961 79.5286 48.2251 74.3996 48.2251ZM74.3996 63.725C70.9802 63.725 68.1997 60.9443 68.1997 57.5251C68.1997 54.1057 70.9804 51.3252 74.3996 51.3252C77.819 51.3252 80.5996 54.1059 80.5996 57.5251C80.5996 60.9443 77.819 63.725 74.3996 63.725Z" fill="#07C1A2"/>
<path d="M92.7539 39.6367L78.8038 17.9366C78.5187 17.4932 78.0273 17.2251 77.5002 17.2251H60.4503C59.5932 17.2251 58.9004 17.9195 58.9004 18.775V57.525C58.9004 58.3822 59.5932 59.0749 60.4503 59.0749H66.6503V55.9749H62.0003V20.3252H76.6539L89.9003 40.9308V55.9752H82.1502V59.0751H91.4502C92.3074 59.0751 93.0002 58.3823 93.0002 57.5252V40.4751C93.0003 40.179 92.9151 39.886 92.7539 39.6367Z" fill="#07C1A2"/>
<path d="M68.2 37.3748V26.5249H80.6V23.4248H66.65C65.7929 23.4248 65.1001 24.1192 65.1001 24.9747V38.9248C65.1001 39.7819 65.7929 40.4747 66.65 40.4747H89.9V37.3746H68.2V37.3748Z" fill="#07C1A2"/>
<path d="M60.45 6.375H1.54994C0.694412 6.375 0 7.06941 0 7.92494V57.525C0 58.3822 0.694412 59.0749 1.54994 59.0749H13.95V55.9749H3.10006V9.47488H58.9001V55.9749H29.4499V59.0749H60.45C61.3072 59.0749 61.9999 58.3822 61.9999 57.525V7.92494C61.9999 7.06941 61.3072 6.375 60.45 6.375Z" fill="#07C1A2"/>
<path d="M10.8498 49.7749H1.5498V52.875H10.8498V49.7749Z" fill="#07C1A2"/>
<path d="M58.8999 49.7749H32.5498V52.875H58.8999V49.7749Z" fill="#07C1A2"/>
<path d="M91.4499 49.7749H85.25V52.875H91.4499V49.7749Z" fill="#07C1A2"/>
<path d="M60.4503 12.5752H6.2002V15.6753H60.4503V12.5752Z" fill="#07C1A2"/>
<path d="M23.2505 55.9751H20.1504V59.0752H23.2505V55.9751Z" fill="#07C1A2"/>
<path d="M75.9497 55.9751H72.8496V59.0752H75.9497V55.9751Z" fill="#07C1A2"/>
<path d="M27.9003 0.174805H6.2002V3.27487H27.9003V0.174805Z" fill="#07C1A2"/>
<path d="M3.10006 0.174805H0V3.27487H3.10006V0.174805Z" fill="#07C1A2"/>
</svg>
