<svg width="10" height="10" viewBox="0 0 10 10" fill="none" xmlns="http://www.w3.org/2000/svg">
<path d="M8.93329 4.60417L5.10412 8.43334C4.63502 8.90244 3.99878 9.16598 3.33537 9.16598C2.67196 9.16598 2.03573 8.90244 1.56662 8.43334C1.09752 7.96424 0.833984 7.328 0.833984 6.66459C0.833984 6.00118 1.09752 5.36494 1.56662 4.89584L5.39579 1.06667C5.70852 0.753939 6.13268 0.578247 6.57496 0.578247C7.01723 0.578247 7.44139 0.753939 7.75412 1.06667C8.06686 1.37941 8.24255 1.80357 8.24255 2.24584C8.24255 2.68811 8.06686 3.11227 7.75412 3.42501L3.92079 7.25417C3.76442 7.41054 3.55234 7.49839 3.33121 7.49839C3.11007 7.49839 2.89799 7.41054 2.74162 7.25417C2.58526 7.09781 2.49741 6.88573 2.49741 6.66459C2.49741 6.44345 2.58526 6.23137 2.74162 6.07501L6.27912 2.54167" stroke="#ABABAB" stroke-width="0.5" stroke-linecap="round" stroke-linejoin="round"/>
</svg>
