<svg width="96" height="80" viewBox="0 0 96 80" fill="none" xmlns="http://www.w3.org/2000/svg">
<path d="M95.0823 18.1749L64.7249 6.39085C63.9888 6.10523 63.1648 6.48108 62.8843 7.2298C62.6038 7.97926 62.9729 8.81821 63.709 9.10383L90.572 19.5314L71.9758 26.7509L48.5881 15.9691C47.8704 15.6379 47.0259 15.9623 46.7014 16.6924C46.3762 17.4232 46.6948 18.2831 47.4119 18.6142L68.2222 28.208L48 36.0576L5.42798 19.5314L48 3.00521L58.4912 7.07841C59.2258 7.36328 60.0505 6.98818 60.3318 6.23872C60.6123 5.49 60.2432 4.65105 59.5071 4.36543L48.5083 0.0953609C48.1809 -0.0314138 47.8191 -0.0321596 47.4917 0.0953609L0.917724 18.1749C0.365479 18.3897 0 18.9296 0 19.5314V26.161C0 26.7628 0.365479 27.3027 0.917724 27.5175L15.4614 33.1627V38.1934C15.4614 38.9951 16.0994 39.6454 16.8867 39.6454C17.6748 39.6454 18.3127 38.9951 18.3127 38.1934V34.2701L47.4917 45.5971C47.6558 45.6604 47.8279 45.6925 48 45.6925C48.1721 45.6925 48.3442 45.6604 48.5083 45.5971L70.5029 37.0592V60.0337C63.5977 63.7244 55.8545 65.702 48 65.702C37.2803 65.702 26.7656 62.0226 18.3127 55.3266V44.0004C18.3127 43.1988 17.6748 42.5485 16.8867 42.5485C16.0994 42.5485 15.4614 43.1988 15.4614 44.0004V56.0299C15.4614 56.4706 15.6577 56.8875 15.9954 57.1626C25.0415 64.5417 36.408 68.6052 48 68.6052C55.8179 68.6052 63.5317 66.7543 70.5029 63.2874V69.163C68.2053 69.8021 66.5112 71.9446 66.5112 74.4838C66.5112 77.5249 68.9414 80 71.9282 80C74.9158 80 77.3459 77.5249 77.3459 74.4838C77.3459 71.9446 75.6519 69.8021 73.3542 69.163V61.7541C75.6782 60.4081 77.9048 58.8763 80.0054 57.1626C80.343 56.8875 80.54 56.4706 80.54 56.0299V33.1619L95.0823 27.5167C95.6345 27.3027 96 26.7628 96 26.1602V19.5314C96 18.9296 95.6345 18.3897 95.0823 18.1749ZM74.4946 74.4838C74.4946 75.9238 73.3433 77.0961 71.9282 77.0961C70.5139 77.0961 69.3625 75.9238 69.3625 74.4838C69.3625 73.043 70.5139 71.8708 71.9282 71.8708C73.3433 71.8708 74.4946 73.043 74.4946 74.4838ZM2.85132 21.6389L46.574 38.6118V42.1331L2.85132 25.1602V21.6389ZM49.426 42.1331V38.6118L70.5029 30.4296V33.9517L49.426 42.1331ZM77.688 55.3259C76.2971 56.4281 74.8491 57.4468 73.3542 58.3819V35.9517L77.688 34.2694V55.3259ZM73.3542 32.8443V29.3229L93.1487 21.6389V25.1602L73.3542 32.8443Z" fill="#07C1A2"/>
</svg>
