<svg width="18" height="18" viewBox="0 0 18 18" fill="none" xmlns="http://www.w3.org/2000/svg">
<path d="M16.5001 13.69V15.94C16.5009 16.1489 16.4581 16.3556 16.3745 16.547C16.2908 16.7384 16.168 16.9102 16.0141 17.0514C15.8602 17.1926 15.6785 17.3001 15.4806 17.367C15.2828 17.434 15.0731 17.4588 14.8651 17.44C12.5572 17.1892 10.3403 16.4006 8.39257 15.1375C6.58044 13.986 5.04407 12.4496 3.89257 10.6375C2.62506 8.68092 1.83625 6.45326 1.59007 4.13501C1.57133 3.92761 1.59598 3.71858 1.66245 3.52123C1.72892 3.32388 1.83575 3.14253 1.97615 2.98873C2.11654 2.83493 2.28743 2.71204 2.47792 2.6279C2.6684 2.54376 2.87433 2.50021 3.08257 2.50001H5.33257C5.69655 2.49643 6.04942 2.62532 6.32539 2.86266C6.60137 3.1 6.78163 3.4296 6.83257 3.79001C6.92754 4.51006 7.10366 5.21706 7.35757 5.89751C7.45848 6.16595 7.48032 6.4577 7.4205 6.73817C7.36069 7.01865 7.22172 7.27609 7.02007 7.48001L6.06757 8.43251C7.13524 10.3102 8.68991 11.8648 10.5676 12.9325L11.5201 11.98C11.724 11.7784 11.9814 11.6394 12.2619 11.5796C12.5424 11.5198 12.8341 11.5416 13.1026 11.6425C13.783 11.8964 14.49 12.0725 15.2101 12.1675C15.5744 12.2189 15.9071 12.4024 16.145 12.6831C16.3828 12.9638 16.5092 13.3222 16.5001 13.69Z" stroke="#07C1A2" stroke-linecap="round" stroke-linejoin="round"/>
</svg>
