<svg width="249" height="473" viewBox="0 0 249 473" fill="none" xmlns="http://www.w3.org/2000/svg">
<path d="M11.6899 326C12.9999 332 13.69 367.14 24.36 371.07C35.03 375 26.4399 353.92 26.4399 353.92L16 329L11.6899 326Z" fill="#F9B4A5"/>
<path d="M236.75 332C236.75 332 236.75 370.26 222.89 371.65C209.03 373.04 223 354.05 223 354.05L236.75 332Z" fill="#F9B4A5"/>
<path d="M65 308L31 458L216 452L167 304L65 308Z" fill="#F57C20"/>
<path d="M224.8 235.49C224.8 235.49 224.8 287.49 227.89 298.49C230.98 309.49 233.89 310 236 323C238.11 336 235.57 353.58 233.79 355.53C232.01 357.48 214 355 214 355L210.39 325.49L208.33 264.49L204.21 244.49L224.8 235.49Z" fill="#F9B4A5"/>
<path d="M23.5799 232.49C23.5799 232.49 23.5799 284.49 20.9399 295.49C18.2999 306.49 13.94 305.49 12.13 318.49C10.32 331.49 14.37 350.58 15.89 352.49C17.41 354.4 24.4599 350.49 24.4599 350.49L35.91 322.49L37.67 261.49L41.1899 241.49L23.5799 232.49Z" fill="#F9B4A5"/>
<path d="M76.73 14.78C76.73 14.78 27.73 94.99 45.73 160.99C63.73 226.99 41.73 262.99 41.73 262.99L156.73 222.99L123.73 134.99C123.73 134.99 80.73 120.72 99.23 56.85" fill="#110D3B"/>
<path d="M71.69 70C70.69 72 77.69 114 68.69 131C59.69 148 59.69 183 62.69 193C65.69 203 66.69 203 66.69 203L83.69 198C83.69 198 66.69 184 72.69 163C78.69 142 86.07 112.73 83.38 104.37C80.69 96.01 76.69 81 76.69 81L71.69 70Z" fill="#2D2561"/>
<path d="M102.19 140.49L101.19 165.49C101.19 165.49 107.19 180.49 124.19 177.49C141.19 174.49 149.19 168.49 149.19 168.49V140.49H102.19Z" fill="#F9B4A5"/>
<path d="M149.19 147.67C149.19 147.67 139.69 166.99 111.69 165.99H101.19L101.69 139.99L149.19 147.67Z" fill="#ED8B7E"/>
<path d="M77.69 93C77.69 93 63.69 94 70.69 106C77.69 118 84.2901 115.52 84.2901 115.52L77.69 93Z" fill="#ED8B7E"/>
<path d="M175 92C175 92 187 93 181 105C175 117 169.28 114.52 169.28 114.52L175 92Z" fill="#ED8B7E"/>
<path d="M78.41 76.43C79.16 88.11 80.1599 99.84 83.0699 111.17C85.9799 122.5 90.91 133.51 98.73 142.17C106.55 150.83 115.52 154.7 127.19 155.45C130.42 155.65 137.12 154.45 140.19 153.45C143.49 152.39 145.5 150.62 148.19 148.45C156.72 141.56 162.27 135.24 166.36 125.07C170.45 114.9 172.69 104.07 174.69 93.32C176.11 85.68 177.42 77.84 176.15 70.17C175.115 64.9145 173.344 59.8312 170.89 55.07C169.633 52.0752 167.852 49.3288 165.63 46.96C163.308 44.8576 160.554 43.2907 157.56 42.37C150.34 39.89 142.56 39.65 134.91 39.62C125.659 39.4267 116.407 39.9617 107.24 41.22C98.48 42.58 89.51 45.22 83.12 51.37C76.73 57.52 73.79 67.93 78.37 75.52" fill="#F9B4A5"/>
<path d="M97.1899 124.49C101.608 124.49 105.19 120.908 105.19 116.49C105.19 112.072 101.608 108.49 97.1899 108.49C92.7717 108.49 89.1899 112.072 89.1899 116.49C89.1899 120.908 92.7717 124.49 97.1899 124.49Z" fill="#F0766A"/>
<path d="M152.69 124.99C157.108 124.99 160.69 121.408 160.69 116.99C160.69 112.572 157.108 108.99 152.69 108.99C148.272 108.99 144.69 112.572 144.69 116.99C144.69 121.408 148.272 124.99 152.69 124.99Z" fill="#F0766A"/>
<path d="M125.19 101.49L122.19 114.49H129.19" fill="#FDD2BA"/>
<path d="M156.69 52C156.69 52 152.69 77 160.69 81C168.69 85 168.69 86 169.69 89C170.69 92 172.69 103.45 172.69 103.45C172.69 103.45 194.69 56 180.69 48C166.69 40 156.69 52 156.69 52Z" fill="#2D2561"/>
<path d="M67.69 46C67.69 46 64.69 55 68.69 72C72.69 89 82.9001 110.52 82.9001 110.52C82.9001 110.52 81.69 90 82.69 85C83.69 80 90.69 77 92.69 69C94.69 61 71.69 35 67.69 46Z" fill="#2D2561"/>
<path d="M103.69 102.49C106.728 102.49 109.19 100.028 109.19 96.99C109.19 93.9524 106.728 91.49 103.69 91.49C100.652 91.49 98.1899 93.9524 98.1899 96.99C98.1899 100.028 100.652 102.49 103.69 102.49Z" fill="#0D0439"/>
<path d="M146.19 102.99C149.228 102.99 151.69 100.528 151.69 97.49C151.69 94.4524 149.228 91.99 146.19 91.99C143.152 91.99 140.69 94.4524 140.69 97.49C140.69 100.528 143.152 102.99 146.19 102.99Z" fill="#0D0439"/>
<path d="M93.0999 89.46C92.9701 88.811 92.9704 88.1427 93.1009 87.4938C93.2314 86.8449 93.4894 86.2284 93.8599 85.68C94.5982 84.5234 95.6781 83.6252 96.9499 83.11C98.1876 82.6166 99.5391 82.4815 100.85 82.72C101.469 82.8417 102.073 83.0329 102.65 83.29C103.217 83.5895 103.745 83.9591 104.22 84.39V84.58L102.58 84.36C102.03 84.36 101.48 84.28 100.94 84.31C99.8467 84.3387 98.7671 84.5587 97.7499 84.96C96.7438 85.3781 95.8336 85.9974 95.0753 86.7798C94.3169 87.5622 93.7264 88.4913 93.3399 89.51L93.0999 89.46Z" fill="#0D0439"/>
<path d="M145.92 84.56C146.307 84.0279 146.795 83.5774 147.356 83.2342C147.917 82.891 148.54 82.6619 149.19 82.56C150.54 82.292 151.939 82.4565 153.19 83.03C154.414 83.5847 155.454 84.4761 156.19 85.6C156.532 86.1287 156.811 86.696 157.02 87.29C157.19 87.9093 157.281 88.5478 157.29 89.19L157.12 89.29L156.12 87.94C155.75 87.54 155.43 87.09 155.03 86.72C154.258 85.9472 153.358 85.3144 152.37 84.85C151.373 84.4039 150.295 84.1667 149.203 84.1529C148.111 84.1392 147.028 84.3492 146.02 84.77L145.92 84.56Z" fill="#0D0439"/>
<path d="M109.13 96.21C109.13 96.21 108.7 87.21 91.33 92.78C90.8876 92.9225 90.432 93.0197 89.97 93.07C88.5 93.24 85.2399 93.53 84.6899 92.99L84.42 92.71C85.3251 93.611 86.4592 94.2473 87.7 94.55C88.6807 94.8066 89.6868 94.9542 90.7 94.99C92.69 95 108.58 91.43 109.13 96.21Z" fill="#0D0439"/>
<path d="M141.13 96.21C141.13 96.21 141.51 87.21 156.66 92.78C157.041 92.9211 157.437 93.0184 157.84 93.07C159.13 93.24 161.97 93.53 162.45 92.99L162.69 92.71C161.934 93.5863 160.941 94.2253 159.83 94.55C158.982 94.8054 158.105 94.9533 157.22 94.99C155.47 95 141.62 91.43 141.13 96.21Z" fill="#0D0439"/>
<path d="M155.65 10C155.65 10 178.56 -3 195.31 9C212.06 21 195.85 76 146.72 71C146.72 71 124.39 72 112.11 60C112.11 60 93.11 82 75.26 71C57.41 60 59.4301 -29.94 154.43 11" fill="#110D3B"/>
<path d="M200.14 15.54C200.14 15.54 189 58 145.62 58C102.24 58 83.38 8.75 83.38 8.75L87.08 6.28C87.08 6.28 87.48 14 94.88 22C102.28 30 153.02 71 179.45 23L186.85 5C186.85 5 197.42 7.00001 200.14 15.54Z" fill="#2D2561"/>
<path d="M114.69 129L122.69 125L126.69 127L130.69 125L137.69 129C137.69 129 132.69 137 126.69 137C119.69 137 116.69 132 114.69 129Z" fill="#F45C76"/>
<path d="M232.19 239.49C232.19 239.49 217.19 189.49 211.19 183.49C205.19 177.49 148.19 164.49 148.19 164.49C145.743 168.207 142.444 171.287 138.569 173.475C134.693 175.663 130.352 176.896 125.905 177.071C121.458 177.246 117.033 176.358 112.998 174.481C108.962 172.605 105.432 169.793 102.7 166.28L101.7 164.99C101.7 164.99 58.6999 172.99 49.6999 177.99C40.6999 182.99 30.6999 192.99 25.6999 208.99C20.6999 224.99 20.6999 224.99 17.6999 230.99C14.6999 236.99 25.6999 250.99 34.6999 252.99L49.6999 254.99L46.6999 340.99L190.7 343.99L203.7 253.99C203.7 253.99 227.7 249.99 232.7 240.99" fill="#F57C20"/>
<path d="M149.69 165C118.69 185 101.69 165 101.69 165L92.8199 166.73C92.8199 166.73 111.69 183 125.69 182C139.69 181 157.16 166.61 157.16 166.61L149.69 165Z" fill="#07C1A2"/>
<path opacity="0.11" d="M54.6899 231.99L47.24 253.99L50.6899 267.99H60.6899L54.6899 231.99Z" fill="black"/>
<path opacity="0.11" d="M197.49 233.99L204.69 255.99L201.36 269.99H191.69L197.49 233.99Z" fill="black"/>
<path opacity="0.15" d="M32.6899 345.67C32.6899 345.67 60.6899 355.99 59.6899 358.99C58.6899 361.99 62.6899 364.99 62.6899 366.99C62.6899 371.99 57.6899 370.99 56.6899 370.99C55.6899 370.99 33.6899 355.99 33.6899 355.99L32.6899 350.99V345.67Z" fill="black"/>
<path d="M86 256L91 257L90 261L94 262L96 269L98 265L99 272L110 277L123 292L111 303L83 292L85 282L79 283L72.46 277.89L70 273L67 275V269L86 256Z" fill="#E1FFC2"/>
<path d="M69 257C69 257 64 262 64 268C64 274 67 274 67 274L74 270L71 276C71 276 76 283 78 282C80 281 89 278 89 278L87 284C87 284 83 292 83 293C83 294 84 304 84 304H111L125 286C125 286 111 277 110 276C109 275 103.5 276.5 103.5 276.5L96.5 274.5L98.5 264.5L93.5 260.5L81.5 267.5L91.5 257.5L92.5 252.5L88.5 249.5L69 257Z" fill="#FFFFDD"/>
<path d="M60 247L85 236L91.42 251.05L60 247Z" fill="#CE8E7C"/>
<path d="M60 247L67 261L91.42 251.69L84 238L60 247Z" fill="#FBC677"/>
<path d="M157 247L144 269V272L162 280L185 284L193 283L192 255H183L174 257L169 254L167 250L157 247Z" fill="#E599A1"/>
<path d="M157 249L148 266L168 279H187H191V257L182 256L172 270L169 269L166 252L157 248V249Z" fill="#F7ABB5"/>
<path d="M150 221.54C150 221.54 145.77 239.29 145 241.14C144.23 242.99 139.08 239.72 134.27 248.55C129.46 257.38 119.09 325.71 119.09 325.71L159.09 333.89C159.09 333.89 182.63 247.22 163.32 246.68C162.123 246.45 161.04 245.82 160.248 244.893C159.455 243.966 159.001 242.798 158.96 241.58C158.67 237.12 160.57 224.9 160.57 224.9L150 221.54Z" fill="#FFDBFF"/>
<path opacity="0.56" d="M154.5 225.06C154.5 225.06 150.5 239.66 148.96 243.35C147.42 247.04 145.03 244.94 141.24 248.77C137.45 252.6 131.76 289.27 129.18 297.95C126.6 306.63 161.41 324.66 161.41 324.66L158.8 333.24L119.36 326.37C119.36 326.37 123.84 239.63 144.48 241.64L149.75 220.89L154.75 221.89L154.5 225.06Z" fill="#B49AD0"/>
<path d="M157.84 304.62C144.5 313.1 126.56 299.02 126.56 299.02L133.18 262.74C133.18 262.74 148.66 275.24 168.43 268.11L157.84 304.62Z" fill="white"/>
<path d="M148.91 211.31L151 208.93L165.06 211.61L166.52 213.31L164.62 225.53L162.92 226.98L157.62 226.2L148.91 211.31Z" fill="#53687D"/>
<path d="M148.91 211.31L147.02 222.45L148.63 225.3L162.12 226.65L163.69 225.14L165.19 214.92L163.2 212.99L151.28 210.13L148.91 211.31Z" fill="#B8C7FF"/>
<path d="M106 227C106 227 94 237 93 239C92.22 240.56 90.82 252.53 91.21 258.62C91.32 260.32 91.56 261.56 92 262C94.1854 263.865 96.5274 265.538 99 267C99 267 92 267 91 270C90 273 90 283 90 285C90 287 88 289 88 289C88 289 84 289 84 290C84 291 70 304 70 304L120 308L116.5 299.5L130.5 285.5C130.5 285.5 134.5 278.5 133.5 277.5C132.5 276.5 124.5 261.5 124.5 261.5C124.5 261.5 122.5 258.5 122.5 257.5C122.5 256.5 127.5 252.5 131.5 249.5C135.5 246.5 135.5 243.5 135.5 243.5L124.5 231.5L106.5 226.5L106 227Z" fill="#E5F0FC"/>
<path d="M107.5 268.5C107.5 268.5 96.4999 270.5 95.4999 270.5C94.4999 270.5 90.4999 273 90.4999 273C90.4999 273 88.1899 267.67 98.3599 266.58L92.54 262.5L107.5 268.5Z" fill="#CEDEEB"/>
<path d="M90.23 284.18C90.23 284.18 95 293 99 294C103 295 104 296 104 296L86 290C86 290 89.46 289.36 90.23 284.18Z" fill="#CEDEEB"/>
<path d="M132.84 248.36C133 248 127 256 128 260C129 264 130.36 271.5 130.36 271.5L118 256L132.84 248.36Z" fill="#CEDEEB"/>
<path d="M134 245L123 238L127.46 234.73L135 243L134.93 245.52L134 245Z" fill="#CEDEEB"/>
<path d="M126 234C110 240 104 228 104 228L106 219C106 219 111 232 128 226L126 234Z" fill="#E599A1"/>
<path d="M127.441 227.571C128.375 224.973 124.342 221.144 118.433 219.02C112.523 216.896 106.975 217.281 106.041 219.88C105.107 222.478 109.141 226.307 115.05 228.431C120.959 230.555 126.507 230.17 127.441 227.571Z" fill="#DAAAB7"/>
<path d="M33.4499 224.19L39.7399 245.37C39.7399 245.37 24.4999 250.37 30.9699 274.7C37.4399 299.03 48.6999 346.21 48.6999 346.21L90.4899 334.94L72.39 262.5C72.39 262.5 70.01 243 55.15 243.5L46.64 222.14L33.4499 224.19Z" fill="#5C6CCC"/>
<path d="M32 225.86L37 246.48C37 246.48 23.06 252.03 29.53 276.37C36 300.71 47.26 347.88 47.26 347.88L89.06 336.61L70.9599 264.17C70.9599 264.17 68.5699 244.66 53.7099 245.17L45.1999 223.81L32 225.86Z" fill="#A5E4F2"/>
<path d="M54.58 250.22C54.58 250.22 62.75 254.5 65.7 267.32L68.7 280.13L73.34 278.28C73.34 278.28 64.24 247.44 54.58 250.22Z" fill="white"/>
<path d="M26.3101 215.73L30.9399 230.04L48.4 225.23L45.63 210.19L26.3101 215.73Z" fill="#8BCF56"/>
<path d="M216 245.18C217.13 243.18 218 241.55 218.44 240.75C220.16 237.47 221.18 235.14 219.15 233.58C213.821 229.439 207.787 226.295 201.34 224.3L200.23 227.81C200.23 227.81 214.31 234.74 214.12 236.24C213.25 238.173 212.248 240.045 211.12 241.84C211.98 242.34 212.88 242.84 213.8 243.49C214.72 244.14 215.32 244.61 216 245.18Z" fill="#DFEFE7"/>
<path d="M201.57 258.65L206.19 261.65C206.183 261.62 206.183 261.59 206.19 261.56C204.52 260.56 202.98 259.56 201.56 258.66L201.57 258.65Z" fill="#DFEFE7"/>
<path opacity="0.9" d="M216 245.18C212.45 251.18 206.79 260.55 206.2 261.52C210.621 264.141 215.174 266.534 219.84 268.69C224.33 263.26 224.82 252.67 216 245.18Z" fill="#B2D7E6"/>
<path opacity="0.9" d="M187.17 246.3C187.17 246.3 190.98 251.55 201.6 258.62C202.05 257.93 208.04 248.76 211.93 242.41C195.78 233.54 187.17 246.3 187.17 246.3Z" fill="#B2D7E6"/>
<path opacity="0.9" d="M214.2 243.76C213.42 243.26 212.67 242.76 211.93 242.41C208.04 248.76 202.05 257.93 201.6 258.62C203.02 259.55 204.6 260.53 206.23 261.52C206.82 260.52 212.48 251.18 216.03 245.18C215.45 244.69 214.84 244.22 214.2 243.76Z" fill="#97C2CC"/>
<path opacity="0.9" d="M185 245.84L183.27 248.84L184.27 250.74C184.27 250.74 195 264.5 217.6 273.6L218.99 273.92L220.99 270.92C196.36 261 185 245.84 185 245.84Z" fill="#B2D7E6"/>
<path opacity="0.9" d="M187.17 246.3L185.02 245.84C185.02 245.84 196.36 260.99 221.02 270.84L219.9 268.66C195.06 257.19 187.17 246.3 187.17 246.3Z" fill="#7297BF"/>
<path d="M215 237.08C215 237.08 215.31 237.08 215.79 237.16C216.27 237.24 216.89 237.34 217.52 237.48C218.15 237.62 218.75 237.79 219.19 237.94L219.96 238.21C219.96 238.21 219.64 238.21 219.17 238.14C218.7 238.07 218.06 237.95 217.44 237.81C216.82 237.67 216.21 237.5 215.75 237.36C215.29 237.22 215 237.08 215 237.08Z" fill="#B1C9BC"/>
<path d="M215.21 236.61H215.44C215.58 236.61 215.79 236.55 216.04 236.53C216.55 236.47 217.22 236.41 217.89 236.4C218.56 236.39 219.22 236.4 219.73 236.4L220.33 236.46H220.56H220.33C220.132 236.495 219.931 236.519 219.73 236.53C219.119 236.608 218.505 236.654 217.89 236.67C217.23 236.67 216.55 236.67 216.05 236.67C215.8 236.67 215.59 236.67 215.45 236.67L215.21 236.61Z" fill="#B1C9BC"/>
<path d="M215 236.28L215.24 236.19L215.86 235.98C216.37 235.8 217.06 235.6 217.77 235.43C218.48 235.26 219.17 235.11 219.71 235.03L220.36 234.94C220.443 234.933 220.527 234.933 220.61 234.94L220.37 235.03L219.76 235.25C219.24 235.42 218.54 235.62 217.84 235.79C217.14 235.96 216.44 236.09 215.9 236.19C215.685 236.232 215.468 236.262 215.25 236.28C215.167 236.287 215.083 236.287 215 236.28Z" fill="#B1C9BC"/>
<path d="M214.61 235.92C214.684 235.877 214.76 235.84 214.84 235.81L215.46 235.53C215.98 235.3 216.68 235.04 217.38 234.79C218.08 234.54 218.82 234.32 219.38 234.19C219.596 234.121 219.816 234.067 220.04 234.03L220.3 233.97L220.06 234.09C219.92 234.16 219.71 234.26 219.44 234.37C218.92 234.59 218.23 234.87 217.52 235.11C216.81 235.35 216.1 235.56 215.52 235.72L214.85 235.88L214.61 235.92Z" fill="#B1C9BC"/>
<g style="mix-blend-mode:multiply">
<g style="mix-blend-mode:multiply">
<path d="M215 234.09C212.06 231.98 204.4 227.86 201 226.09L200.45 227.82C200.45 227.82 214.66 234.77 214.45 236.3C213.32 239.47 201.14 258.4 201.14 258.4L203.34 259.84C205.01 257.35 208.54 251.99 211.41 247.18C215.87 239.81 218.84 236.8 215 234.09Z" fill="#DFEFE7"/>
</g>
</g>
<path d="M194.67 298.07C195.73 296.02 196.6 293.76 197.87 291.81C198.87 290.363 200.104 289.093 201.52 288.05C203.38 286.58 205.22 285.05 207.04 283.57C208.86 282.09 210.81 280.57 212.53 278.88C213.38 278.05 214.21 277.18 215.11 276.42L217.58 273.59C194.98 264.49 184.25 250.73 184.25 250.73L163.16 291.32C163.16 291.32 171.37 306.16 187.48 308.58C190.058 305.204 192.457 301.696 194.67 298.07Z" fill="#E27D87"/>
<g style="mix-blend-mode:multiply">
<g style="mix-blend-mode:multiply">
<path d="M184.25 250.73L163.16 291.32C164.269 293.175 165.544 294.926 166.97 296.55L189.32 256C187.497 254.376 185.802 252.614 184.25 250.73V250.73Z" fill="#C0C0C0"/>
</g>
</g>
<path d="M198.19 292.22C199.214 290.753 200.471 289.463 201.91 288.4C203.8 286.92 205.66 285.4 207.51 283.86C208.57 283 209.65 282.13 210.7 281.24C186.49 274.53 178.92 259.24 178.92 259.24C178.92 259.24 176.72 262.96 168.13 278.6C176.02 291.67 190.13 296.52 195.31 297.93C196.158 295.972 197.12 294.066 198.19 292.22V292.22Z" fill="#FDCE52"/>
<g style="mix-blend-mode:multiply" opacity="0.7">
<g style="mix-blend-mode:multiply" opacity="0.7">
<path d="M178.86 259.26C178.86 259.26 176.68 262.91 168.21 278.36C169.06 279.79 170.027 281.148 171.1 282.42L181.81 263.58C180.687 262.241 179.698 260.794 178.86 259.26V259.26Z" fill="#C7C7C7"/>
</g>
</g>
<g style="mix-blend-mode:multiply">
<path d="M210.38 273.37C207.27 275.73 204.38 278.37 201.16 280.59C201.11 280.59 201.07 280.59 201.04 280.59C200.04 279.45 191.04 283.13 190.04 282.02C190.11 284.12 198.4 281.47 198.36 283.58C198.36 283.65 198.36 283.76 198.25 283.77C192.67 284.41 187.16 283.27 181.65 282.48C184.01 286.2 188.03 288.72 191.58 291.15C191.611 291.186 191.628 291.232 191.628 291.28C191.628 291.328 191.611 291.374 191.58 291.41C189.06 296.87 186.64 302.41 184.42 307.97C185.434 308.239 186.462 308.45 187.5 308.6C190.078 305.224 192.477 301.716 194.69 298.09C194.753 297.989 194.807 297.881 194.85 297.77L195.33 297.92C196.179 295.973 197.141 294.076 198.21 292.24C199.234 290.773 200.491 289.483 201.93 288.42C203.82 286.94 205.68 285.42 207.53 283.88C208.59 283.02 209.67 282.15 210.72 281.26L210.1 281.09C210.95 280.39 211.77 279.65 212.55 278.9C213.33 278.15 214.23 277.2 215.13 276.44L217.6 273.61C215.96 272.94 214.36 272.26 212.83 271.54C212 272.15 211.18 272.75 210.38 273.37Z" fill="#C7C7C7"/>
</g>
<g style="mix-blend-mode:multiply">
<path d="M216.93 274.34C217.34 273.85 217.58 273.59 217.58 273.59C194.98 264.49 184.25 250.73 184.25 250.73L183.7 251.73C195.83 266 212.79 272.81 216.93 274.34Z" fill="#C0C0C0"/>
</g>
<g opacity="0.9">
<path opacity="0.9" d="M214 243.65C213 243.01 212 242.42 211 241.93L200.6 257.93C201.45 258.51 202.38 259.11 203.34 259.72C206.78 254.29 210.24 248.86 214 243.65Z" fill="#72B3BF"/>
</g>
<g style="mix-blend-mode:color-dodge">
<path d="M188.22 296.1L183.22 306.77C183.22 306.77 179.46 305.77 178.09 304.69L184.41 294.5L188.22 296.1Z" fill="#E95315"/>
</g>
<path d="M215.69 288.99H31.6899V422.99H215.69V288.99Z" fill="#958BC6"/>
<path opacity="0.23" d="M134.838 302.096C138.467 296.55 136.913 289.113 131.367 285.484C125.822 281.855 118.384 283.409 114.755 288.954L90.5477 325.947C86.9187 331.493 88.4725 338.93 94.0181 342.559C99.5637 346.188 107.001 344.635 110.63 339.089L134.838 302.096Z" fill="white"/>
<path opacity="0.23" d="M179.305 299.795C182.933 294.25 181.38 286.812 175.834 283.184C170.289 279.555 162.851 281.108 159.222 286.654L101.909 374.238C98.2798 379.784 99.8336 387.221 105.379 390.85C110.925 394.479 118.362 392.925 121.991 387.38L179.305 299.795Z" fill="white"/>
<path d="M228.69 279.99H21.6899V297.99H228.69V279.99Z" fill="#756EA0"/>
<path d="M125.14 329.78L125.47 330.22C126.95 332.22 128.36 334.34 129.75 336.46C130.17 337.127 130.57 337.793 130.95 338.46C129.49 339.14 128.04 339.82 126.57 340.46H126.51C126.29 340.57 126.09 340.68 125.87 340.81C127.31 341.569 128.796 342.237 130.32 342.81C132.8 343.81 135.32 344.81 137.76 345.89C140.01 346.89 142.37 347.79 144.76 348.58C144.897 348.588 145.033 348.618 145.16 348.67C145.25 348.42 145.31 348.17 145.41 347.92C145.9 346.36 146.41 344.79 146.91 343.24C147.52 341.43 148.11 339.63 148.72 337.83C148.846 337.248 149.034 336.682 149.28 336.14C149.64 335.07 150.01 334 150.36 332.95C150.63 332.15 150.91 331.37 151.18 330.59C151.194 330.568 151.215 330.55 151.24 330.54C151.33 330.32 151.4 330.1 151.48 329.9C150.983 330.14 150.468 330.34 149.94 330.5C148.77 331.08 147.48 331.5 146.28 331.99C145.13 330.36 144.01 328.72 142.88 327.08C141.75 325.376 140.504 323.752 139.15 322.22C138.58 321.62 137.72 321.22 137.08 320.62C136.653 320.311 136.146 320.13 135.62 320.1C131.92 319.91 128.16 320.21 124.48 320.31C121.4 320.42 118.4 320.11 115.33 320.46C114.354 320.349 113.366 320.461 112.44 320.79C112.024 321.004 111.646 321.284 111.32 321.62C111.306 321.648 111.285 321.672 111.26 321.69C111.26 321.69 111.2 321.69 111.16 321.77C108.32 324.41 106.16 327.71 103.67 330.71C102.85 331.71 102 332.71 101.18 333.71C101.34 333.829 101.493 333.956 101.64 334.09C104.01 335.64 106.22 337.6 108.5 339.3C110.548 341.04 112.706 342.646 114.96 344.11C115.32 344.32 115.63 344.55 115.96 344.76L116.34 344.1C117.34 342.37 118.4 340.74 119.43 339.1C120.46 337.46 121.33 335.9 122.27 334.3C123.111 332.723 124.07 331.212 125.14 329.78V329.78ZM116 322C115.33 321.78 114.32 321.27 113.61 321.51C113.17 321.67 113.36 321.66 112.91 321.61V321.49C113.45 321.43 113.82 321.05 114.38 321.15C114.94 321.25 115.28 321.31 115.71 321.41C116.804 321.678 117.828 322.179 118.71 322.88C120.994 324.617 123.015 326.675 124.71 328.99C124.82 329.14 124.59 329.4 124.46 329.27C123.59 328.43 122.92 327.42 122.04 326.61C121.16 325.8 120.15 324.84 119.16 324C118.245 323.136 117.172 322.457 116 322V322Z" fill="white"/>
<path d="M162 361.14C162.005 361.107 162.005 361.073 162 361.04C162.01 361.02 162.015 360.997 162.015 360.975C162.015 360.952 162.01 360.93 162 360.91C161.28 357.05 159.64 353.44 158.42 349.74C157.99 348.47 157.58 347.23 157.16 345.99C156.99 346.05 156.78 346.11 156.61 346.19V346.26C154.1 347.51 151.32 348.47 148.72 349.56C146.191 350.456 143.722 351.515 141.33 352.73V352.73C141 352.91 140.63 353.05 140.27 353.22C140.41 353.45 140.53 353.67 140.65 353.89C141.58 355.63 142.4 357.44 143.29 359.22L145.81 364.22C146.655 365.775 147.371 367.397 147.95 369.07L147.43 369.14C144.97 369.37 142.43 369.52 140.02 369.66C139.24 369.66 138.46 369.66 137.71 369.66C137.9 368.03 138.09 366.42 138.3 364.8C138.32 364.557 138.32 364.313 138.3 364.07C136.916 364.943 135.581 365.891 134.3 366.91C132.18 368.57 130.08 370.27 127.88 371.83C125.88 373.28 123.88 374.89 122.03 376.51C121.92 376.62 121.85 376.73 121.74 376.83C121.91 377.01 122.08 377.21 122.24 377.41C123.31 378.64 124.35 379.89 125.37 381.14C126.583 382.6 127.78 384.06 128.96 385.52C129.401 385.924 129.781 386.388 130.09 386.9C130.79 387.77 131.51 388.62 132.22 389.48C132.75 390.13 133.22 390.79 133.78 391.48V391.55C133.93 391.73 134.06 391.91 134.2 392.09C134.243 391.537 134.333 390.988 134.47 390.45C134.61 389.13 134.88 387.78 135.13 386.45C137.07 386.29 139.05 386.15 141.04 386.02C143.057 385.922 145.063 385.668 147.04 385.26C147.82 385.08 148.66 384.55 149.44 384.26C149.924 384.043 150.339 383.697 150.64 383.26C152.7 380.11 154.4 376.7 156.24 373.39C157.75 370.68 159.54 368.19 160.84 365.32C161.448 364.528 161.869 363.608 162.07 362.63C162.139 362.133 162.115 361.628 162 361.14ZM161.08 363.57C159.68 365.51 158.41 367.19 156.14 368.1C153.981 368.926 151.666 369.268 149.36 369.1C149.09 369.1 149.2 368.72 149.36 368.67C151.55 368.26 153.8 368.18 155.91 367.35C157.864 366.459 159.578 365.115 160.91 363.43C161 363.39 161.11 363.47 161 363.57H161.08Z" fill="white"/>
<path d="M120.42 370.07C120.42 369.68 120.42 369.28 120.42 368.91C120.162 368.916 119.905 368.936 119.65 368.97C117.74 369.14 115.79 369.17 113.85 369.3C111.91 369.43 110.2 369.57 108.38 369.68C106.642 369.853 104.892 369.877 103.15 369.75C103.215 369.578 103.265 369.401 103.3 369.22C104.07 366.82 104.94 364.43 105.83 362.07C106.1 361.33 106.43 360.62 106.75 359.91C108.12 360.72 109.48 361.55 110.87 362.4V362.46C111.09 362.59 111.32 362.7 111.51 362.8C111.279 361.157 110.945 359.531 110.51 357.93C109.92 355.27 109.22 352.64 108.71 349.93C108.21 347.47 107.57 345.01 106.85 342.59C106.801 342.455 106.741 342.325 106.67 342.2C106.45 342.28 106.2 342.37 105.97 342.43C104.41 342.91 102.9 343.43 101.36 343.87C99.57 344.41 97.78 344.92 95.99 345.47C95.4534 345.707 94.889 345.875 94.3101 345.97L91.13 346.97C90.35 347.2 89.55 347.43 88.77 347.64H88.71L88.05 347.81C88.05 347.81 88.05 347.81 88.05 347.86C88.5366 348.121 88.9985 348.426 89.4301 348.77C90.5601 349.45 91.65 350.23 92.73 350.99C92.09 352.88 91.42 354.78 90.73 356.66C90.0169 358.593 89.4322 360.57 88.98 362.58C88.84 363.39 88.98 364.38 88.9 365.21C88.893 365.755 89.0459 366.291 89.34 366.75C91.34 369.95 93.6901 372.92 95.9301 375.94C97.7401 378.44 99.2799 381.12 101.32 383.5C101.781 384.378 102.434 385.14 103.23 385.73C103.636 385.953 104.08 386.099 104.54 386.16H104.64C104.657 386.167 104.676 386.171 104.695 386.171C104.714 386.171 104.733 386.167 104.75 386.16C108.51 387.04 112.41 386.95 116.24 387.27C117.5 387.37 118.79 387.52 120.09 387.6C120.09 387.4 120.09 387.2 120.09 387H120.04C119.9 384.13 120.18 381.15 120.24 378.27C120.462 375.549 120.498 372.816 120.35 370.09L120.42 370.07ZM102.42 369.54C99.7317 369.858 97.0064 369.61 94.42 368.81C92.42 368.22 89.79 367.55 89.25 365.23C89.25 365.23 89.31 365.14 89.33 365.23C90.33 367.3 93.1301 367.98 95.1801 368.44C97.5931 368.848 100.033 369.075 102.48 369.12C102.79 369.11 102.66 369.51 102.45 369.54H102.42Z" fill="white"/>
<path d="M233 441H16C7.16344 441 0 448.163 0 457C0 465.837 7.16344 473 16 473H233C241.837 473 249 465.837 249 457C249 448.163 241.837 441 233 441Z" fill="#07C1A2"/>
<path d="M31.3101 321.85C31.3101 321.85 29 321 28 323C27 325 28 337 26 339C24 341 19 349 19 349L20 352L28.59 345.5L32 337L31 329L31.3101 321.85Z" fill="#F0766A"/>
<path d="M19.4 365.45C19.3822 367.787 19.9834 370.086 21.1427 372.115C22.302 374.144 23.978 375.829 26 377C33 381 50.58 379.48 50.58 379.48C50.58 379.48 52 378 46 376" fill="#F0766A"/>
<path d="M19 361C19 361 19 371 23 371C27 371 25.21 368.75 25.21 368.75C25.21 368.75 20 365 19 361Z" fill="#F0766A"/>
<path d="M58.85 374.35C58.85 374.35 56 367 46 367C36 367 21 361 20 359C19 357 18.66 357.27 18.66 357.27C18.66 357.27 20 367 21 368C26 373 52 374 52 374L58.85 374.35Z" fill="#F0766A"/>
<path d="M33.5 323.5C33.5 323.5 29.5 322.5 28.5 325.5C27.5 328.5 29.5 332.5 28.5 335.5C27.5 338.5 27.5 339.5 25.5 342.5C23.5 345.5 19.5 347.5 18.5 349.5C17.5 351.5 18.5 361.5 19.5 362.5C20.5 363.5 35.5 370.5 35.5 370.5L57.5 369.5C57.5 369.5 60 360 54.5 362.5C48.74 365.12 23.5 352.5 23.5 352.5L30.5 342.5L32.5 327.5L33.5 323.5Z" fill="#F0766A"/>
<path d="M33 322C33 322 29 321 29 324C29 327 29 333 28 337C27 341 23 345 21 347C19 349 19 350 19 353C19 356 24 359 24 359C24 359 28 362 29 362C30 362 54 363 56 363C58 363 56.5 359.5 52.5 357.5C48.5 355.5 41.5 355.5 37.5 353.5L31.5 350.5C30.5795 349.964 29.5582 349.623 28.5 349.5L32.5 345.5C34.5 343.5 36.5 324.5 33 322Z" fill="#FBB4A2"/>
<path d="M18.5 354.5C18.5178 356.868 18.8542 359.222 19.5 361.5C20.5 364.5 28.5 370.5 30.5 370.5H60.5C64.5 370.5 60.5 363.5 56.5 363.5C52.5 363.5 31.5 363.5 28.5 362.5C25.5 361.5 18.5 355.5 18.5 353.5V354.5Z" fill="#FBB4A2"/>
<path d="M20 365C20.0179 366.646 20.3189 368.276 20.89 369.82C21.79 371.89 28.89 376.02 30.72 376.02H57.52C61.09 376.02 57.52 371.2 53.95 371.2C50.38 371.2 31.61 371.2 28.95 370.51C26.29 369.82 20.02 365.68 20.02 364.31L20 365Z" fill="#FBB4A2"/>
<path d="M22.5 374C22.5 374 27.5 380 30.5 380H50.5C50.5 380 51.5 378 46.5 377C41.5 376 37.5 377 33 377C28.88 377 22.5 374 21.5 373L22.5 374Z" fill="#FBB4A2"/>
<path d="M33.42 343.43C33.42 343.43 29 349 28 349C27 349 29 350 29 350L36.13 352.81C36.13 352.81 32 349 32 348C32.3273 346.435 32.8028 344.905 33.42 343.43V343.43Z" fill="#F0766A"/>
<path d="M217 321.85C217.255 321.726 217.533 321.657 217.817 321.648C218.1 321.639 218.382 321.691 218.644 321.8C218.906 321.909 219.142 322.072 219.336 322.279C219.53 322.486 219.678 322.732 219.77 323C220.61 325 219.77 337 221.45 339C223.13 341 227.31 349 227.31 349L226.47 352L219.28 345.5L216.42 337L217.26 329L217 321.85Z" fill="#F0766A"/>
<path d="M227 365.45C227 365.45 227.33 373 221.47 377C215.61 381 200.89 379.48 200.89 379.48C200.89 379.48 199.69 378 204.72 376" fill="#F0766A"/>
<path d="M227.3 361C227.3 361 227.3 371 223.95 371C220.6 371 222.1 368.75 222.1 368.75C222.1 368.75 226.46 365 227.3 361Z" fill="#F0766A"/>
<path d="M193.93 374.35C194.74 372.161 196.211 370.277 198.139 368.96C200.067 367.644 202.356 366.959 204.69 367C213.06 367 225.63 361 226.46 359C227.29 357 227.58 357.27 227.58 357.27C227.58 357.27 226.46 367 225.63 368C221.44 373 199.63 374 199.63 374L193.93 374.35Z" fill="#F0766A"/>
<path d="M215.16 323.5C215.16 323.5 218.51 322.5 219.34 325.5C220.17 328.5 218.51 332.5 219.34 335.5C220.17 338.5 220.18 339.5 221.86 342.5C223.54 345.5 226.86 347.5 227.72 349.5C228.58 351.5 227.72 361.5 226.88 362.5C226.04 363.5 213.48 370.5 213.48 370.5L195.06 369.5C195.06 369.5 192.96 360 197.57 362.5C202.39 365.12 223.57 352.5 223.57 352.5L217.71 342.5L216.03 327.5L215.16 323.5Z" fill="#F0766A"/>
<path d="M215.58 322C215.58 322 218.93 321 218.93 324C218.93 327 218.93 333 219.76 337C220.59 341 223.95 345 225.63 347C227.31 349 227.3 350 227.3 353C227.3 356 223.11 359 223.11 359C223.11 359 219.76 362 218.93 362C218.1 362 197.99 363 196.31 363C194.63 363 195.89 359.5 199.24 357.5C202.59 355.5 208.46 355.5 211.81 353.5L216.81 350.5C217.555 349.972 218.416 349.629 219.32 349.5L215.97 345.5C214.32 343.5 212.64 324.5 215.58 322Z" fill="#FBB4A2"/>
<path d="M227.72 354.5C227.706 356.858 227.424 359.206 226.88 361.5C226.04 364.5 219.34 370.5 217.67 370.5H192.54C189.19 370.5 192.54 363.5 195.89 363.5C199.24 363.5 216.83 363.5 219.34 362.5C221.85 361.5 227.72 355.5 227.72 353.5V354.5Z" fill="#FBB4A2"/>
<path d="M226.46 365C226.446 366.635 226.193 368.258 225.71 369.82C224.97 371.89 218.98 376.02 217.48 376.02H195C192 376.02 195 371.2 198 371.2C201 371.2 216.71 371.2 219 370.51C221.29 369.82 226.48 365.68 226.48 364.31L226.46 365Z" fill="#FBB4A2"/>
<path d="M224.37 374C224.37 374 220.18 380 217.67 380H200.92C200.92 380 200.08 378 204.27 377C208.46 376 211.81 377 215.58 377C219.03 377 224.37 374 225.21 373C226.05 372 224.37 374 224.37 374Z" fill="#FBB4A2"/>
<path d="M215.22 343.43C215.22 343.43 218.93 349 219.76 349C220.59 349 218.93 350 218.93 350L212.93 352.81C212.93 352.81 216.38 349 216.38 348C216.119 346.448 215.731 344.919 215.22 343.43Z" fill="#F0766A"/>
</svg>
