<svg width="30" height="30" viewBox="0 0 30 30" fill="none" xmlns="http://www.w3.org/2000/svg">
<path d="M11.9824 26.9372V29.983L11.2477 29.3881C11.1342 29.2961 8.43315 27.0978 5.69412 23.9455C1.91574 19.5969 0 15.6934 0 12.3438V12.0117C0 5.38845 5.37529 0 11.9824 0C18.5896 0 23.9648 5.38845 23.9648 12.0117V12.3438C23.9648 12.625 23.95 12.9107 23.923 13.1998L21.5797 11.0568C21.0997 6.17245 16.9789 2.34375 11.9824 2.34375C6.66458 2.34375 2.33803 6.68089 2.33803 12.0117V12.3438C2.33803 18.0041 9.61327 24.8564 11.9824 26.9372ZM19.1718 25.2538H22.6788V21.7383H19.1718V25.2538ZM11.9824 7.03125C14.7219 7.03125 16.9508 9.26556 16.9508 12.0117C16.9508 14.7579 14.7219 16.9922 11.9824 16.9922C9.24294 16.9922 7.01408 14.7579 7.01408 12.0117C7.01408 9.26556 9.24294 7.03125 11.9824 7.03125ZM11.9824 9.375C10.532 9.375 9.35211 10.5578 9.35211 12.0117C9.35211 13.4655 10.532 14.6485 11.9824 14.6485C13.4326 14.6485 14.6127 13.4655 14.6127 12.0117C14.6127 10.5578 13.4326 9.375 11.9824 9.375ZM28.4244 23.6612L27.767 23.0601V26.8227C27.767 28.5747 26.345 30 24.5972 30H17.195C15.4472 30 14.0252 28.5747 14.0252 26.8227V23.0601L13.3678 23.6612L11.7922 21.9298L20.896 13.6041L30 21.9298L28.4244 23.6612ZM25.429 20.9219L20.896 16.7766L16.3632 20.9219V26.8225C16.3632 27.2823 16.7363 27.6562 17.195 27.6562H24.5972C25.0559 27.6562 25.429 27.2823 25.429 26.8225V20.9219Z" fill="white"/>
</svg>
