<svg width="30" height="20" viewBox="0 0 30 20" fill="none" xmlns="http://www.w3.org/2000/svg">
<path d="M27.3633 0H2.63672C1.18283 0 0 1.15097 0 2.5657V17.4343C0 18.849 1.18283 20 2.63672 20H27.3633C28.8172 20 30 18.849 30 17.4343V2.5657C30 1.15097 28.8172 0 27.3633 0ZM27.0192 1.71046L26.6672 1.9956L16.0461 10.6016C15.4399 11.0927 14.56 11.0927 13.9539 10.6016L3.33275 1.9956L2.98084 1.71046H27.0192ZM1.75781 2.94531L10.4116 9.95724L1.75781 15.5615V2.94531ZM27.3633 18.2895H2.63672C2.21203 18.2895 1.85684 17.9949 1.77545 17.6047L11.8211 11.0992L12.8291 11.916C13.458 12.4256 14.2291 12.6804 15.0001 12.6804C15.771 12.6804 16.542 12.4256 17.171 11.916L18.1791 11.0992L28.2246 17.6047C28.1432 17.9949 27.788 18.2895 27.3633 18.2895ZM28.2422 15.5615L19.5884 9.9573L28.2422 2.94531V15.5615Z" fill="white"/>
</svg>
