<svg width="32" height="32" viewBox="0 0 32 32" fill="none" xmlns="http://www.w3.org/2000/svg">
<path d="M23.5 1H8.5C4.35786 1 1 4.35786 1 8.5V23.5C1 27.6421 4.35786 31 8.5 31H23.5C27.6421 31 31 27.6421 31 23.5V8.5C31 4.35786 27.6421 1 23.5 1Z" stroke="white" stroke-width="2" stroke-linecap="round" stroke-linejoin="round"/>
<path d="M22.1846 14.9055C22.371 16.1625 22.1563 17.4463 21.5711 18.5743C20.9858 19.7023 20.0597 20.617 18.9246 21.1883C17.7895 21.7596 16.5031 21.9585 15.2485 21.7566C13.9939 21.5547 12.8348 20.9623 11.9362 20.0638C11.0377 19.1652 10.4453 18.0061 10.2434 16.7515C10.0415 15.4969 10.2404 14.2105 10.8117 13.0754C11.383 11.9403 12.2977 11.0142 13.4257 10.4289C14.5537 9.84366 15.8375 9.62895 17.0945 9.81536C18.3768 10.0055 19.5638 10.603 20.4804 11.5196C21.397 12.4362 21.9945 13.6232 22.1846 14.9055Z" stroke="white" stroke-width="2" stroke-linecap="round" stroke-linejoin="round"/>
</svg>
