<svg width="30" height="30" viewBox="0 0 30 30" fill="none" xmlns="http://www.w3.org/2000/svg">
<path d="M21.561 30.0001C20.5926 30.0001 19.6324 29.8289 18.6935 29.4878C14.557 27.9852 10.7175 25.5378 7.58987 22.4102C4.46225 19.2827 2.01488 15.4431 0.5123 11.3067C0.029446 9.97733 -0.113049 8.60512 0.0889165 7.22798C0.278109 5.93803 0.777778 4.68575 1.53396 3.60649C2.29348 2.52249 3.30607 1.62088 4.4622 0.999163C5.69508 0.336199 7.04075 0 8.46195 0C8.90397 0 9.28598 0.308836 9.37862 0.741008L10.8501 7.60789C10.9167 7.91883 10.8211 8.24238 10.5963 8.46725L8.08199 10.9815C10.4539 15.6973 14.3027 19.5461 19.0185 21.918L21.5327 19.4037C21.7576 19.1789 22.0812 19.0834 22.3921 19.1499L29.259 20.6214C29.6912 20.714 30 21.096 30 21.538C30 22.9592 29.6638 24.305 29.0008 25.5379C28.3791 26.694 27.4775 27.7066 26.3935 28.4661C25.3143 29.2223 24.062 29.7219 22.772 29.9111C22.3677 29.9705 21.9636 30.0001 21.561 30.0001ZM7.71292 1.91595C5.83828 2.12289 4.17439 3.10547 3.06947 4.68247C1.82698 6.45574 1.53724 8.63682 2.27456 10.6665C5.16336 18.619 11.3812 24.8368 19.3336 27.7256C21.3632 28.4629 23.5444 28.1732 25.3177 26.9306C26.8946 25.8257 27.8772 24.1618 28.0842 22.2872L22.498 21.0902L19.8721 23.716C19.5927 23.9954 19.1682 24.0697 18.8106 23.9016C13.2333 21.2814 8.7187 16.7668 6.09848 11.1895C5.9305 10.8319 6.00468 10.4073 6.2841 10.128L8.90994 7.50213L7.71292 1.91595Z" fill="white"/>
<path d="M29.0623 15.9369C28.5445 15.9369 28.1248 15.5172 28.1248 14.9995C28.1248 7.76257 22.2372 1.87493 15.0003 1.87493C14.4826 1.87493 14.0628 1.45518 14.0628 0.937466C14.0628 0.41975 14.4826 0 15.0003 0C19.0068 0 22.7735 1.56018 25.6065 4.3932C28.4395 7.22622 29.9997 10.9929 29.9997 14.9995C29.9997 15.5172 29.58 15.9369 29.0623 15.9369Z" fill="white"/>
<path d="M25.3124 15.9371C24.7947 15.9371 24.3749 15.5173 24.3749 14.9996C24.3749 9.83041 20.1695 5.62493 15.0003 5.62493C14.4826 5.62493 14.0628 5.20518 14.0628 4.68747C14.0628 4.16975 14.4826 3.75 15.0003 3.75C21.2033 3.75 26.2499 8.79656 26.2499 14.9996C26.2499 15.5173 25.8302 15.9371 25.3124 15.9371Z" fill="white"/>
<path d="M21.5625 15.9367C21.0448 15.9367 20.6251 15.517 20.6251 14.9992C20.6251 11.8977 18.1018 9.37444 15.0003 9.37444C14.4826 9.37444 14.0628 8.95469 14.0628 8.43698C14.0628 7.91926 14.4826 7.49951 15.0003 7.49951C19.1357 7.49951 22.5 10.8638 22.5 14.9992C22.5 15.517 22.0803 15.9367 21.5625 15.9367Z" fill="white"/>
</svg>
