<svg width="354" height="523" viewBox="0 0 354 523" fill="none" xmlns="http://www.w3.org/2000/svg">
<path d="M52 297.05C52 297.05 39 325.05 39 336.05C39 347.05 57.35 363.64 57.35 363.64L71 319.24L58 302L52 297.05Z" fill="#07C1A2"/>
<path d="M131 99C131 99 117 100 124 112C131 124 137.6 121.53 137.6 121.53L131 99Z" fill="#ED8B7E"/>
<path d="M228.28 98C228.28 98 240.34 99 234.28 111C228.22 123 222.57 120.53 222.57 120.53L228.28 98Z" fill="#ED8B7E"/>
<path d="M289 320L308 317L314 324L317.02 330.27L319 340L294.52 343.88L286 335L285 325L289 320Z" fill="#07C1A2"/>
<path d="M155.5 146.5L154.5 171.5C154.5 171.5 160.5 186.5 177.5 183.5C194.5 180.5 202.5 174.5 202.5 174.5V146.5H155.5Z" fill="#ED8B7E"/>
<path d="M131.72 82.44C132.47 94.12 133.47 105.85 136.38 117.18C139.29 128.51 144.21 139.52 152.04 148.18C159.87 156.84 168.82 160.72 180.5 161.46C183.72 161.67 190.42 160.46 193.5 159.46C196.8 158.4 198.8 156.64 201.5 154.46C210.03 147.58 215.58 141.25 219.67 131.08C223.76 120.91 226 110.08 228 99.33C229.42 91.69 230.73 83.85 229.46 76.19C228.423 70.9319 226.652 65.8455 224.2 61.08C222.941 58.0865 221.16 55.3405 218.94 52.97C216.614 50.8732 213.861 49.307 210.87 48.38C203.64 45.9 195.87 45.66 188.22 45.63C178.969 45.4401 169.717 45.9784 160.55 47.24C151.79 48.59 142.81 51.24 136.43 57.38C130.05 63.52 127.1 73.95 131.67 81.54" fill="#F9B4A5"/>
<path d="M150.5 130.5C154.918 130.5 158.5 126.918 158.5 122.5C158.5 118.082 154.918 114.5 150.5 114.5C146.082 114.5 142.5 118.082 142.5 122.5C142.5 126.918 146.082 130.5 150.5 130.5Z" fill="#F0766A"/>
<path d="M206 131C210.418 131 214 127.418 214 123C214 118.582 210.418 115 206 115C201.582 115 198 118.582 198 123C198 127.418 201.582 131 206 131Z" fill="#F0766A"/>
<path d="M152.73 106.33C153.28 103.93 155.34 101.57 157.99 102.11C158.53 102.233 159.04 102.462 159.49 102.785C159.94 103.108 160.321 103.518 160.61 103.99C161.322 105.085 161.837 106.297 162.13 107.57C162.245 107.943 162.501 108.256 162.843 108.443C163.186 108.63 163.587 108.677 163.963 108.573C164.339 108.469 164.66 108.222 164.857 107.886C165.055 107.549 165.113 107.149 165.02 106.77C164.13 103.38 162.13 99.68 158.3 99.14C154.19 98.55 150.72 101.66 149.84 105.53C149.781 105.722 149.761 105.924 149.781 106.123C149.801 106.323 149.861 106.517 149.957 106.693C150.053 106.869 150.184 107.024 150.341 107.148C150.499 107.273 150.68 107.365 150.873 107.418C151.066 107.472 151.269 107.486 151.468 107.46C151.667 107.434 151.858 107.368 152.032 107.267C152.205 107.165 152.356 107.03 152.476 106.869C152.596 106.708 152.682 106.525 152.73 106.33V106.33Z" fill="#0D0439"/>
<path d="M196.73 106.33C197.28 103.93 199.34 101.57 201.99 102.11C202.53 102.233 203.04 102.462 203.49 102.785C203.94 103.108 204.321 103.518 204.61 103.99C205.322 105.085 205.837 106.297 206.13 107.57C206.245 107.943 206.501 108.256 206.843 108.443C207.186 108.63 207.587 108.677 207.963 108.573C208.339 108.469 208.66 108.222 208.857 107.886C209.055 107.549 209.113 107.149 209.02 106.77C208.13 103.38 206.13 99.68 202.3 99.14C198.19 98.55 194.72 101.66 193.84 105.53C193.781 105.722 193.761 105.924 193.781 106.123C193.801 106.323 193.861 106.517 193.957 106.693C194.053 106.869 194.184 107.024 194.341 107.148C194.499 107.273 194.68 107.365 194.873 107.418C195.066 107.472 195.269 107.486 195.468 107.46C195.667 107.434 195.858 107.368 196.032 107.267C196.205 107.165 196.356 107.03 196.476 106.869C196.596 106.708 196.682 106.525 196.73 106.33V106.33Z" fill="#0D0439"/>
<path d="M178.5 107.5L175.5 120.5H182.5" fill="#FDD2BA"/>
<path d="M190 127L187.19 131.53C183 138 177 139 171.94 133.13L167 127" fill="#110D3B"/>
<path d="M128 319C128 319 111 331 107 328C107 328 116 330 117.5 329.5C119 329 128 319 128 319Z" fill="#CEDEEB"/>
<path d="M150 166L102 180C102 180 109 220 113 273C117.33 330.33 108 376 108 376L258 374C258 374 246 198 258 182L207.61 166.66L177 196L150 166Z" fill="#07C1A2"/>
<path d="M100.63 180.48C100.63 180.48 63 192 66 234C69 276 82 296 82 296L107 295L110 259V232L108 198L100.63 180.48Z" fill="#07C1A2"/>
<path d="M103.34 179.61L99 181C99 181 112 227 110 250C108 273 112 262 112 262C112 262 114.68 208.22 103.34 179.61Z" fill="#38A892"/>
<path d="M253.25 180.61C253.25 180.61 302.45 193.92 298.53 242.41C294.61 290.9 277.61 314 277.61 314L244.92 312.85L241 271.28V240.1L243.61 200.84L253.25 180.61Z" fill="#07C1A2"/>
<path d="M249.71 179.61L255.38 181.22C255.38 181.22 238.38 234.33 241 260.89C243.62 287.45 238.39 274.74 238.39 274.74C238.39 274.74 234.88 212.64 249.71 179.61Z" fill="#38A892"/>
<path d="M152 170H154L167 179L176 182H185L190 180L195 178L200 181L194 192L179 196L163 192L154 181L152 170Z" fill="#07C1A2"/>
<path d="M208 167C177 205 150 166 150 166L154.5 164.5C154.5 164.5 166.5 179.5 179.5 179.5C192.5 179.5 202.5 166 202.5 166L208 167Z" fill="#FAFEF9"/>
<path d="M290 275C290 275 308 311 312 316C316 321 318 336 318 336L314 327L311.74 324.74C309.264 322.263 306.404 320.203 303.27 318.64L298 316L270 321L269.34 290.5L290 275Z" fill="#07C1A2"/>
<path d="M58.33 280L42 324V327C42 327 43 327 44 325C45 323 50 314 56 318C62 322 62 332 62 332V334L66 336L80.06 324L81 286L68 271L58.33 280Z" fill="#07C1A2"/>
<path d="M263.04 310.1H92.9C75.8731 310.1 62.07 323.903 62.07 340.93V465.01C62.07 482.037 75.8731 495.84 92.9 495.84H263.04C280.067 495.84 293.87 482.037 293.87 465.01V340.93C293.87 323.903 280.067 310.1 263.04 310.1Z" fill="#86BCAE"/>
<path d="M65.78 312.5C65.78 312.5 279.08 317.63 285.16 332C291.24 346.37 294.27 364.17 294.27 364.17C294.27 364.17 297.27 318.66 290.27 312.5C285.19 308.14 65.78 312.5 65.78 312.5Z" fill="#8AA8A7"/>
<path d="M286.29 502H69.67C67.6099 501.953 65.6528 501.09 64.228 499.602C62.8032 498.113 62.0271 496.12 62.07 494.06V494.06C62.07 489.67 58.89 469.16 63.07 469.16H292.85C297.04 469.16 293.85 489.67 293.85 494.06C293.893 496.113 293.122 498.1 291.706 499.588C290.29 501.075 288.343 501.942 286.29 502V502Z" fill="#8AA8A7"/>
<path d="M290.21 347.26C289 346 286 343 288 341C290 339 297 341 298.35 344.13C299.01 345.64 298 348 298 348H295L290.21 347.26Z" fill="#F9B4A5"/>
<path d="M298 344C298 344 299 345 298 347C297 349 300.48 344.5 300.48 344.5C300.48 344.5 298.21 343.32 298.1 343.66L298 344Z" fill="#F4D1C3"/>
<path d="M297.15 354.08C297.15 354.08 297.64 354.21 297.82 355.6L298 357L299.15 355L297 354" fill="#F4D1C3"/>
<path d="M285 349C285 349 283.39 346 287 346C290 346 297 352.18 297 355.09C297 358 285 349 285 349Z" fill="#EE816E"/>
<path d="M295.15 361.08C295.15 361.08 295.64 361.21 295.82 362.6L296 364L297.15 362L295 361" fill="#F4D1C3"/>
<path d="M298.28 342.51C294.06 343.68 293 341.34 293 341.34L296.17 348.34C297.17 350.67 303.56 346 303.56 346L312 335.5V332C312 332 302.5 341.34 298.28 342.51Z" fill="#EE816E"/>
<path d="M288 343C288 343 301 352 304 352C307 352 313 346 314 345L318.5 340.5C318.5 340.5 321 350 319 352C317 354 304 359 304 359C304 359 298.5 357.5 295.5 354.5C292.5 351.5 290 350 290 349C290 348 288 343 288 343Z" fill="#EE816E"/>
<path d="M312.5 328.5C312.5 328.5 319.5 335.5 319.5 339.5C319.5 342.28 318.05 346.5 317.16 348.84C316.966 349.357 316.664 349.827 316.275 350.218C315.885 350.61 315.416 350.914 314.9 351.11L305.25 354.83C304.702 355.039 304.114 355.124 303.529 355.077C302.945 355.03 302.378 354.854 301.87 354.56C298.18 352.42 289.5 347.29 289.5 346.5C289.637 345.64 289.982 344.826 290.505 344.129C291.028 343.432 291.713 342.873 292.5 342.5C292.883 342.314 293.286 342.17 293.7 342.07C294.441 341.928 295.207 341.994 295.913 342.261C296.619 342.527 297.237 342.984 297.7 343.58C298.48 344.5 300.12 345.19 303.49 343.5C307.89 341.3 311.22 336.4 312.68 333.95C312.949 333.504 313.126 333.009 313.2 332.494C313.274 331.978 313.243 331.453 313.11 330.95L312.5 328.5Z" fill="#F9B4A5"/>
<path d="M287 350C287 350 296.5 360.5 301.5 360.5C306.5 360.5 315 358 315 357C315 356 317.5 356.5 317.5 356.5C317.5 356.5 315.5 361.5 314.5 361.5C313.5 361.5 302.5 363.5 300.5 363.5C298.5 363.5 294.5 362.5 292.5 360.5C290.861 359.053 289.005 357.872 287 357V350Z" fill="#EE816E"/>
<path d="M288 357C288 357 297.5 367.5 302.5 367.5C307.5 367.5 316 365 316 364C316 363 318.5 363.5 318.5 363.5C318.5 363.5 316.5 368.5 315.5 368.5C314.5 368.5 303.5 370.5 301.5 370.5C299.5 370.5 295.5 369.5 293.5 367.5C291.861 366.053 290.005 364.872 288 364V357Z" fill="#F4CFCA"/>
<path d="M290 358C290 358 299.5 368.5 304.5 368.5C309.5 368.5 318 366 318 365C318.105 364.242 318.456 363.539 319 363C319 363 318.5 369.5 317.5 369.5C316.5 369.5 305.5 371.5 303.5 371.5C301.5 371.5 297.5 370.5 295.5 368.5C293.861 367.053 292.005 365.872 290 365V358Z" fill="#EE816E"/>
<path d="M289.91 349.29C289.91 349.29 282 345 285.5 350.5C287.2 353.17 295.5 359.5 298.5 360.5C301.5 361.5 310.57 361.15 314.04 358.82C317.51 356.49 320.5 355.5 320.5 352.5C320.316 349.947 319.812 347.427 319 345C319 345 318.5 352.5 315.5 353.5C312.5 354.5 307.5 358.5 304.5 358.5C303.15 358.5 300.76 357.41 298.23 355.86C295.187 354.035 292.391 351.827 289.91 349.29V349.29Z" fill="#F9B4A5"/>
<path d="M293 355L300 360L309 359C309 359 318 356 320.14 354.12C322.28 352.24 319 344 319 344C319 344 318 351 317 352C316 353 304 357 304 357C301.605 356.151 299.267 355.149 297 354C295.69 353.173 294.467 352.214 293.35 351.14C290.85 348.97 287.95 346.51 286 347C285 347.25 284.63 347.75 284.63 348.36C284.63 350.19 288 353 288 353L293 355Z" fill="#F9B4A5"/>
<path d="M307.34 340.75C307.34 340.75 311 342 311 344V348C311 348 314 342 313 341C311.899 340.065 310.717 339.229 309.47 338.5L307.34 340.75Z" fill="#EE816E"/>
<path d="M302 364C302.134 364.13 302.241 364.285 302.314 364.457C302.387 364.629 302.425 364.813 302.425 365C302.425 365.187 302.387 365.371 302.314 365.543C302.241 365.715 302.134 365.87 302 366C301 367 304 365 304 365L303.73 363.42L302 364Z" fill="#F4D1C3"/>
<path d="M320.87 350C320.927 353.449 320.777 356.899 320.42 360.33C320.378 360.65 320.318 360.967 320.24 361.28C320.188 361.528 320.107 361.77 320 362C319 364 314 367 305 366C296 365 291 365 287 362C286.23 361.42 286 362 285.11 357.56C285.11 357.38 285.04 357.19 285 357C284.68 355.41 285 354.08 285.68 353.51C286.36 352.94 287.08 353.08 288 354C289.58 355.58 296 362 301 362C306 362 307 363 311 361C315 359 320 354 320.87 350Z" fill="#F9B4A5"/>
<path d="M288.52 363L288.79 363.12C290.25 363.8 297.21 366.98 299 366.98C301 366.98 306 368.98 308 367.98C310 366.98 316 366.98 317 361.98C318 356.98 305.59 364.83 305.59 364.83C305.59 364.83 293.52 361.98 292.26 362.48C291 362.98 286 361 286 361" fill="#F9B4A5"/>
<path d="M286 358C286 358 282 363 300 368C318 373 320.39 360.57 320.39 360.57L308.93 366.2L289 361L286 358Z" fill="#F9B4A5"/>
<path d="M320 361C320.056 363.699 319.922 366.399 319.6 369.08C319.556 369.329 319.499 369.576 319.43 369.82C319.377 370.014 319.303 370.202 319.21 370.38C318.29 371.95 313.69 374.29 305.4 373.51C297.11 372.73 292.52 372.73 288.84 370.38C288.1 369.91 287.92 370.38 287 366.47C286.833 366.003 286.803 365.498 286.913 365.015C287.023 364.531 287.268 364.089 287.62 363.74C288.15 363.36 288.92 363.41 289.76 364.13C291.22 365.36 297.12 370.38 301.76 370.38C306.4 370.38 307.28 371.16 310.97 369.6C314.66 368.04 319.2 364.13 320 361Z" fill="#F9B4A5"/>
<path d="M287.91 367.25C287.91 367.25 284.23 371.16 300.79 375.07C317.35 378.98 319.55 369.26 319.55 369.26L309.01 373.66L290.67 369.6L287.91 367.25Z" fill="#F9B4A5"/>
<path d="M306.66 341.33C306.66 341.33 295.43 350.12 291.02 340.49C286.61 330.86 310.02 335.04 310.02 335.04L306.68 341.33" fill="#EE816E"/>
<path d="M299 326.76C299 326.76 303.69 321.56 308.07 324.17C312.45 326.78 312.81 333.84 310.8 336.07C308.79 338.3 296.44 346.01 293.47 343.33C290.5 340.65 286.69 335.88 299 326.76Z" fill="#F9B4A5"/>
<path d="M318.91 337.12C318.91 337.12 309 322 307 325C305 328 312.2 332 311.6 336C311 340 318.91 337.31 318.91 337.31" fill="#F9B4A5"/>
<path d="M288 363L287.69 362.66C287.69 362.66 285.94 361.66 284.97 356.84C284 352.02 283.97 361 283.97 361L284.97 366" fill="#86BCAE"/>
<path d="M288 342L287.74 344.1C287.74 344.1 289 348 292 348C295 348 291 343 291 343L288 342Z" fill="#F9B4A5"/>
<path d="M287 367C287 367 286.83 369 290.42 371.5C294.01 374 286 374 286 374V370L287 367Z" fill="#86BCAE"/>
<path d="M210 58C210 58 206 83 214 87C222 91 222 92 223 95C224 98 226 109.46 226 109.46C226 109.46 248 62 234 54C220 46 210 58 210 58Z" fill="#2D2561"/>
<path d="M121 52C121 52 118 61 122 78C126 95 136.21 116.53 136.21 116.53C136.21 116.53 135 96 136 91C137 86 144 83 146 75C148 67 125 41 121 52Z" fill="#2D2561"/>
<path d="M154.52 10C154.52 10 132.84 -3 117 9C101.16 21 116.49 76 163 71C163 71 184.12 72 195.74 60C195.74 60 213.69 82 230.59 71C247.49 60 245.59 -29.94 155.7 11" fill="#110D3B"/>
<path d="M112.44 15.55C112.44 15.55 123 58 164 58C205 58 222.88 8.75 222.88 8.75L219.38 6.28999C219.38 6.28999 219 14 212 22C205 30 157 71 132 23L125 5C125 5 115 7 112.44 15.55Z" fill="#2D2561"/>
<path d="M57 324C57 324 48 332 48 335C48 338 74 331 57 324Z" fill="#F9B4A5"/>
<path d="M173.14 134.43C173.14 134.43 176.74 133.37 178 134C180 135 180 134 181 134C185 134 185 134.33 185 134.33C183.539 135.783 181.642 136.718 179.6 136.99H179.23C176.33 136.99 173.71 134.88 173.23 134.49L173.14 134.43Z" fill="#F45C76"/>
<path d="M169 127L171 130H187L189 127H169Z" fill="white"/>
<path d="M186.522 231.96C190.72 230.399 193.499 227.455 192.729 225.384C191.959 223.313 187.932 222.9 183.734 224.462C179.536 226.023 176.757 228.967 177.527 231.038C178.297 233.108 182.324 233.521 186.522 231.96Z" fill="#AA9EC6"/>
<path d="M183.5 239C184.5 238 195.5 235 195.5 235L214.5 239L217.5 255C217.5 255 218.5 263 218.5 265C218.34 267.025 218.005 269.032 217.5 271C217.5 271 221.5 276 221.5 277C221.5 278 220.5 284 220.5 284L221.5 289L223.5 295L217.5 309L184.5 308L181.5 290L188 280.5L191 271.5L184 263.5L177 253.5L177.38 250.83L178 246.5L183.5 239Z" fill="#EA7188"/>
<path d="M199 267.5L195 261.5L183 254.5L177 250.5V253.5L191 271.5L188.97 277.6L188 280.5L181 290.5L191 286.5L197 281.5L199 273.5V267.5Z" fill="#C63E52"/>
<path d="M194.5 237L212.5 241L214.5 255L210.5 263L214.5 270L215.5 275L218.5 278L216.5 282L218.5 288L219.5 293L217.5 296L214.5 303L211.41 308.82L217.5 309L223.5 295L220.5 284L221.5 277L217.5 270L218.5 265L215.49 244.29L214.5 239L196.5 235L194.5 237Z" fill="#C63E52"/>
<path d="M177.62 231.15L183.36 239.2L196 235L192.38 224.7C192.38 224.7 188.24 233.3 177.62 231.15Z" fill="#978EAF"/>
<path d="M182.37 260.41C182.37 260.41 195 265 195 266C195 267 196 273 196 273L192 279L188 281L190 274L190.38 270.71L187.48 267.48L182.83 261.83L182.37 260.41Z" fill="#A5203A"/>
<path d="M192 267L197 268L196 272L200 273L202 280L204 276L205 283L216 288L229 303L217 314L189 303L191 293L185 294L178.46 288.89L176 284L173 286V280L192 267Z" fill="#E1E6F6"/>
<path d="M175 268C175 268 170 273 170 279C170 285 173 285 173 285L180 281L177 287C177 287 182 294 184 293C186 292 195 289 195 289L193 295C193 295 189 303 189 304C189 305 190 315 190 315H217L231 297C231 297 217 288 216 287C215 286 209.5 287.5 209.5 287.5L202.5 285.5L204.5 275.5L199.5 271.5L187.5 278.5L197.5 268.5L198.5 263.5L194.5 260.5L175 268Z" fill="#FFFFFE"/>
<path d="M166 258L191 247L197.42 262.05L166 258Z" fill="#CE8E63"/>
<path d="M166 258L173 272L197.42 262.69L190 249L166 258Z" fill="#FBC69F"/>
<path d="M139 299L134 298L145 280L148.8 282.83L139 299Z" fill="#9B99A1"/>
<path d="M149.5 279.5L136.5 301.5V304.5L154.5 312.5L177.5 316.5L185.5 315.5L184.5 287.5H175.5L166.5 289.5L161.5 286.5L159.5 282.5L149.5 279.5Z" fill="#E599A1"/>
<path d="M149.5 281.5L140.5 298.5L160.5 311.5H179.5H183.5V289.5L174.5 288.5L164.5 302.5L161.5 301.5L158.5 284.5L149.5 280.5V281.5Z" fill="#F7ABB5"/>
<path d="M138 230L135 250L123 256L108.32 316.5L149 324L160 263L149 249L150 229L138 230Z" fill="#FFF9C2"/>
<path d="M146.5 225.5C146.5 225.5 143.5 244.5 143.5 250.5C143.5 256.5 142.5 260.5 145.5 259.5C148.5 258.5 154.5 257.5 152.5 263.5C150.5 269.5 145.92 292.5 140.21 297C134.5 301.5 119.5 297.5 119.5 297.5L106.5 304.5L104.5 317.5L148.5 327.5L159.5 263.5L148.5 248.5L150 229.56L146.5 225.5Z" fill="#F7E8BA"/>
<path d="M138 216L136 232L152 234L157 220L137 215" fill="#A8ACBA"/>
<path d="M55 217C55 217 58 235 58 237C58 239 52 238 51 248C50 258 67 325 67 325L107 317C107 317 95 228 77 235C75.8079 235.255 74.5644 235.097 73.474 234.552C72.3835 234.007 71.5111 233.107 71 232C69 228 66 216 66 216L55 217Z" fill="#CBE9E1"/>
<path d="M60.5 218.5C60.5 218.5 62.5 233.5 62.5 237.5C62.5 241.5 59.5 240.5 57.5 245.5C55.5 250.5 64.5 286.5 65.5 295.5C66.5 304.5 105.57 307.58 105.57 307.58L106.5 316.5L67.5 325.5C67.5 325.5 37.91 243.84 57.71 237.67L54.5 216.5L59.5 215.5L60.5 218.5Z" fill="#B4DCD0"/>
<path d="M94.5 290.5C85.5 303.5 63.5 297.5 63.5 297.5L55.5 261.5C55.5 261.5 74.62 267 90.06 252.75L94.5 290.5Z" fill="white"/>
<path d="M50 208L51 205L65 202L67 203L70 215L69 217L63.81 218.33L50 208Z" fill="#53877D"/>
<path d="M50 208L52.59 219L55.18 221L68.14 217L69 215L66.41 205L63.82 204L51.73 206L50 208Z" fill="#8AB0A9"/>
<path d="M104 236C104 236 92 246 91 248C90.22 249.56 88.82 261.53 89.21 267.62C89.32 269.32 89.56 270.56 90 271C92.1854 272.865 94.5274 274.538 97 276C97 276 90 276 89 279C88 282 88 292 88 294C88 296 86 298 86 298C86 298 82 298 82 299C82 300 68 313 68 313L118 317L114.5 308.5L128.5 294.5C128.5 294.5 132.5 287.5 131.5 286.5C130.5 285.5 122.5 270.5 122.5 270.5C122.5 270.5 120.5 267.5 120.5 266.5C120.5 265.5 125.5 261.5 129.5 258.5C133.5 255.5 133.5 252.5 133.5 252.5L122.5 240.5L104.5 235.5L104 236Z" fill="#E5F0FC"/>
<path d="M105.5 277.5C105.5 277.5 94.5 279.5 93.5 279.5C92.5 279.5 88.5 282 88.5 282C88.5 282 86.19 276.67 96.36 275.58L90.54 271.5L105.5 277.5Z" fill="#CEDEEB"/>
<path d="M88.23 293.18C88.23 293.18 93 302 97 303C101 304 102 305 102 305L84 299C84 299 87.46 298.36 88.23 293.18Z" fill="#CEDEEB"/>
<path d="M130.84 257.36C131 257 125 265 126 269C127 273 128.36 280.5 128.36 280.5L116 265L130.84 257.36Z" fill="#CEDEEB"/>
<path d="M132 254L121 247L125.46 243.73L133 252L132.93 254.52L132 254Z" fill="#CEDEEB"/>
<path d="M124 243C108 249 102 237 102 237L104 228C104 228 109 241 126 235L124 243Z" fill="#E599A1"/>
<path d="M125.441 236.567C126.375 233.969 122.342 230.14 116.433 228.016C110.523 225.892 104.976 226.277 104.042 228.876C103.108 231.474 107.141 235.303 113.05 237.427C118.96 239.551 124.507 239.166 125.441 236.567Z" fill="#DAAAB7"/>
<path d="M271.16 273.5C271.16 273.5 262.63 272.5 256.54 281.5C250.45 290.5 244.36 292.5 244.36 292.5L232.18 291.5L220 308.5L240.71 314.5L271.16 315.5L288.16 308.5C288.16 308.5 263.85 294.5 271.16 273.5Z" fill="#B1A5C3"/>
<path d="M247.58 290.78L245.58 299.5L248.01 306.5L240.71 297.5V292.2L244.36 292.5L247.58 290.78Z" fill="#978EAF"/>
<path d="M267.42 289.13L266.28 307.5L268.72 313.5L271.16 315.5L288.21 308.5" fill="#978EAF"/>
<path d="M284.434 305.665C288.422 303.022 286.873 293.664 280.974 284.761C275.075 275.859 267.06 270.785 263.072 273.428C259.084 276.071 260.633 285.429 266.532 294.332C272.431 303.234 280.446 308.308 284.434 305.665Z" fill="#978EAF" stroke="#AA9EC6" stroke-width="2.98707" stroke-miterlimit="10"/>
<path d="M245 204L243 226C243 226 227 225 224 250C221 275 214 323 214 323L257 328L267 254C267 254 272 235 258 230V207L245 204Z" fill="#CEBD5B"/>
<path d="M243 205L241 227C241 227 225 226 222 251C219 276 212 324 212 324L255 329L265 255C265 255 270 236 256 231V208L243 205Z" fill="#FFF07C"/>
<path d="M255 236C255 236 261 243 259 256L257 269H262C262 269 265 237 255 236Z" fill="white"/>
<path d="M241.5 193.5L240.5 208.5L258.5 210.5L261.5 195.5L241.5 193.5Z" fill="#8BCFBE"/>
<path d="M295.17 306H58.83C55.6102 306 53 308.61 53 311.83V326.17C53 329.39 55.6102 332 58.83 332H295.17C298.39 332 301 329.39 301 326.17V311.83C301 308.61 298.39 306 295.17 306Z" fill="#8BCFBE"/>
<path d="M149.5 92.5C149.5 92.5 156.5 81.5 162.5 92.5" stroke="#0D0439" stroke-width="0.75" stroke-miterlimit="10"/>
<path d="M195.5 92.5C195.5 92.5 202.5 81.5 208.5 92.5" stroke="#0D0439" stroke-width="0.75" stroke-miterlimit="10"/>
<path d="M67 342.51C71.33 343.68 72.41 341.34 72.41 341.34L69.17 348.34C68.08 350.67 61.6 346 61.6 346L53 335.5V332C53 332 62.68 341.34 67 342.51Z" fill="#EE816E"/>
<path d="M77.53 343C77.53 343 64.22 352 61.15 352C58.08 352 51.93 346 50.91 345L46.3 340.5C46.3 340.5 43.74 350 45.79 352C47.84 354 61.15 359 61.15 359C61.15 359 66.78 357.5 69.85 354.5C72.92 351.5 75.48 350 75.48 349C75.48 348 77.53 343 77.53 343Z" fill="#EE816E"/>
<path d="M52.44 328.5C52.44 328.5 45.28 335.5 45.28 339.5C45.28 342.28 46.77 346.5 47.67 348.84C47.8766 349.36 48.1898 349.83 48.5894 350.221C48.989 350.612 49.4661 350.915 49.99 351.11L59.87 354.83C60.4298 355.04 61.0289 355.125 61.6249 355.078C62.221 355.031 62.7996 354.854 63.32 354.56C67.1 352.42 75.99 347.29 75.99 346.5C75.8456 345.633 75.4901 344.814 74.9547 344.116C74.4193 343.419 73.7206 342.864 72.92 342.5C72.529 342.315 72.1203 342.171 71.7 342.07C70.9424 341.924 70.1592 341.987 69.435 342.253C68.7107 342.52 68.0729 342.978 67.59 343.58C66.79 344.5 65.11 345.19 61.66 343.5C57.15 341.3 53.74 336.4 52.25 333.95C51.9769 333.506 51.797 333.011 51.7214 332.495C51.6457 331.979 51.6759 331.454 51.81 330.95L52.44 328.5Z" fill="#F9B4A5"/>
<path d="M78.55 350C78.55 350 68.82 360.5 63.71 360.5C58.6 360.5 49.89 358 49.89 357C49.89 356 47.33 356.5 47.33 356.5C47.33 356.5 49.33 361.5 50.4 361.5C51.47 361.5 62.68 363.5 64.73 363.5C66.78 363.5 70.87 362.5 72.92 360.5C74.6047 359.05 76.5039 357.869 78.55 357V350Z" fill="#EE816E"/>
<path d="M77.53 357C77.53 357 67.8 367.5 62.68 367.5C57.56 367.5 48.86 365 48.86 364C48.86 363 46.3 363.5 46.3 363.5C46.3 363.5 48.35 368.5 49.37 368.5C50.39 368.5 61.66 370.5 63.71 370.5C65.76 370.5 69.85 369.5 71.9 367.5C73.5832 366.048 75.4827 364.867 77.53 364V357Z" fill="#F4CFCA"/>
<path d="M75.48 358C75.48 358 65.75 368.5 60.63 368.5C55.51 368.5 46.81 366 46.81 365C46.7065 364.241 46.3549 363.538 45.81 363C45.81 363 46.32 369.5 47.35 369.5C48.38 369.5 59.63 371.5 61.68 371.5C63.73 371.5 67.82 370.5 69.87 368.5C71.5547 367.05 73.4539 365.869 75.5 365L75.48 358Z" fill="#EE816E"/>
<path d="M75.57 349.29C75.57 349.29 83.67 345 80.09 350.5C78.35 353.17 69.85 359.5 66.78 360.5C63.71 361.5 54.42 361.15 50.87 358.82C47.32 356.49 44.25 355.5 44.25 352.5C44.439 349.944 44.9566 347.423 45.79 345C45.79 345 46.3 352.5 49.37 353.5C52.44 354.5 57.56 358.5 60.63 358.5C62.01 358.5 64.46 357.41 67.06 355.86C70.165 354.041 73.0248 351.834 75.57 349.29V349.29Z" fill="#F9B4A5"/>
<path d="M72.41 355L65.24 360L56 359C56 359 46.78 356 44.59 354.12C42.4 352.24 45.79 344 45.79 344C45.79 344 46.79 351 47.84 352C48.89 353 61.15 357 61.15 357C63.5975 356.152 65.9889 355.15 68.31 354C69.6501 353.175 70.9031 352.217 72.05 351.14C74.61 348.97 77.58 346.51 79.57 347C80.57 347.25 80.98 347.75 80.98 348.36C80.98 350.19 77.53 353 77.53 353L72.41 355Z" fill="#F9B4A5"/>
<path d="M57.73 340.75C57.73 340.75 54 342 54 344V348C54 348 50.93 342 51.95 341C53.0828 340.064 54.2939 339.228 55.57 338.5L57.73 340.75Z" fill="#EE816E"/>
<path d="M43.88 350C43.8228 353.449 43.9731 356.899 44.33 360.33C44.39 360.69 44.45 361.01 44.52 361.28C44.5706 361.53 44.6547 361.772 44.77 362C45.77 364 50.91 367 60.12 366C69.33 365 74.45 365 78.55 362C79.34 361.42 79.5499 362 80.4799 357.56L80.5999 357C80.9199 355.41 80.5999 354.08 79.9099 353.51C79.2199 352.94 78.47 353.08 77.53 354C75.91 355.58 69.3399 362 64.2199 362C59.0999 362 58.08 363 53.98 361C49.88 359 44.77 354 43.88 350Z" fill="#F9B4A5"/>
<path d="M77 363L76.73 363.12C75.23 363.8 68.1 366.98 66.27 366.98C64.27 366.98 59.11 368.98 57.06 367.98C55.01 366.98 48.87 366.98 47.85 361.98C46.83 356.98 59.53 364.83 59.53 364.83C59.53 364.83 71.88 361.98 73.17 362.48C74.46 362.98 79.58 360.98 79.58 360.98" fill="#F9B4A5"/>
<path d="M79.57 358C79.57 358 83.67 363 65.24 368C46.81 373 44.37 360.57 44.37 360.57L56.1 366.2L76.5 361L79.57 358Z" fill="#F9B4A5"/>
<path d="M44.77 361C44.719 363.7 44.8594 366.4 45.19 369.08C45.2342 369.329 45.2909 369.576 45.36 369.82C45.4117 370.016 45.4891 370.204 45.59 370.38C46.53 371.95 51.24 374.29 59.72 373.51C68.2 372.73 72.91 372.73 76.72 370.38C77.47 369.91 77.66 370.38 78.6 366.47C78.7717 366.002 78.8026 365.494 78.6889 365.009C78.5752 364.524 78.3218 364.083 77.96 363.74C77.42 363.36 76.64 363.41 75.77 364.13C74.28 365.36 68.24 370.38 63.53 370.38C58.82 370.38 57.88 371.16 54.11 369.6C50.34 368.04 45.59 364.13 44.77 361Z" fill="#F9B4A5"/>
<path d="M77.62 367.25C77.62 367.25 81.39 371.16 64.43 375.07C47.47 378.98 45.23 369.26 45.23 369.26L56.02 373.66L74.79 369.6L77.62 367.25Z" fill="#F9B4A5"/>
<path d="M58.43 341.33C58.43 341.33 69.92 350.12 74.43 340.49C78.94 330.86 55 335 55 335L58.43 341.29" fill="#EE816E"/>
<path d="M66.3 326.76C66.3 326.76 61.5 321.56 57.01 324.17C52.52 326.78 52.16 333.84 54.22 336.07C56.28 338.3 68.92 346.01 71.96 343.33C75 340.65 78.87 335.88 66.3 326.76Z" fill="#F9B4A5"/>
<path d="M338 491H16C7.16344 491 0 498.163 0 507C0 515.837 7.16344 523 16 523H338C346.837 523 354 515.837 354 507C354 498.163 346.837 491 338 491Z" fill="#07C1A2"/>
</svg>
