<svg width="245" height="474" viewBox="0 0 245 474" fill="none" xmlns="http://www.w3.org/2000/svg">
<path d="M60.16 280.86C60.16 280.86 56.91 417.61 51 446C46 470 201 447 201 447C201 447 198 422 194 390C191 366.16 181.93 278.55 181.93 278.55L122 287L82 281L60.16 280.86Z" fill="#1B0F4F"/>
<path d="M73 95C73 95 59 96 66 108C73 120 79.6 117.53 79.6 117.53L73 95Z" fill="#ED8B7E"/>
<path d="M170.28 94C170.28 94 182.34 95 176.28 107C170.22 119 164.57 116.53 164.57 116.53L170.28 94Z" fill="#ED8B7E"/>
<path d="M97.5 142.5L96.5 167.5C96.5 167.5 102.5 182.5 119.5 179.5C136.5 176.5 144.5 170.5 144.5 170.5V142.5H97.5Z" fill="#ED8B7E"/>
<path d="M73.72 78.44C74.47 90.12 75.47 101.85 78.38 113.18C81.29 124.51 86.21 135.52 94.04 144.18C101.87 152.84 110.82 156.72 122.5 157.46C125.72 157.67 132.42 156.46 135.5 155.46C138.8 154.4 140.8 152.64 143.5 150.46C152.03 143.58 157.58 137.25 161.67 127.08C165.76 116.91 168 106.08 170 95.33C171.42 87.69 172.73 79.85 171.46 72.19C170.423 66.9319 168.652 61.8455 166.2 57.08C164.941 54.0865 163.16 51.3405 160.94 48.97C158.614 46.8732 155.861 45.307 152.87 44.38C145.64 41.9 137.87 41.66 130.22 41.63C120.969 41.4401 111.717 41.9784 102.55 43.24C93.79 44.59 84.81 47.24 78.43 53.38C72.05 59.52 69.1 69.95 73.67 77.54" fill="#F9B4A5"/>
<path d="M92.5 126.5C96.9183 126.5 100.5 122.918 100.5 118.5C100.5 114.082 96.9183 110.5 92.5 110.5C88.0817 110.5 84.5 114.082 84.5 118.5C84.5 122.918 88.0817 126.5 92.5 126.5Z" fill="#F0766A"/>
<path d="M148 127C152.418 127 156 123.418 156 119C156 114.582 152.418 111 148 111C143.582 111 140 114.582 140 119C140 123.418 143.582 127 148 127Z" fill="#F0766A"/>
<path d="M120.5 103.5L117.5 116.5H124.5" fill="#FDD2BA"/>
<path d="M152 54C152 54 148 79 156 83C164 87 164 88 165 91C166 94 168 105.46 168 105.46C168 105.46 190 58 176 50C162 42 152 54 152 54Z" fill="#2D2561"/>
<path d="M63 48C63 48 60 57 64 74C68 91 78.21 112.53 78.21 112.53C78.21 112.53 77 92 78 87C79 82 86 79 88 71C90 63 67 37 63 48Z" fill="#2D2561"/>
<path d="M99 104.5C102.038 104.5 104.5 102.038 104.5 99C104.5 95.9624 102.038 93.5 99 93.5C95.9624 93.5 93.5 95.9624 93.5 99C93.5 102.038 95.9624 104.5 99 104.5Z" fill="#0D0439"/>
<path d="M142.5 104C145.538 104 148 101.538 148 98.5C148 95.4624 145.538 93 142.5 93C139.462 93 137 95.4624 137 98.5C137 101.538 139.462 104 142.5 104Z" fill="#0D0439"/>
<path d="M88.5 91.5C88.5 91.5 90.5 84.5 99.5 86.5" stroke="#0D0439" stroke-width="0.75" stroke-miterlimit="10"/>
<path d="M141.27 86.66C141.27 86.66 147.73 83.31 152.46 91.22" stroke="#0D0439" stroke-width="0.75" stroke-miterlimit="10"/>
<path d="M67.81 29.18C67.13 30.09 49.95 23.51 50.01 40.69C50.07 57.87 64.62 79.6 76.86 73.83C89.1 68.06 90.2 62.33 90.2 62.33C90.2 62.33 114.78 79.44 142.6 63.33C142.6 63.33 149.34 80.49 170.5 74.7C191.66 68.91 191.5 32.24 168.13 28.88C168.13 28.87 116.65 -36.28 67.81 29.18Z" fill="#110D3B"/>
<path d="M150 165.79C119.27 204.01 92 165.21 92 165.21L96.49 163.68C96.49 163.68 108.6 178.59 121.6 178.5C134.6 178.41 144.5 164.83 144.5 164.83L150 165.79Z" fill="#FAFEF9"/>
<path d="M64 175L39.4 180.91C36.4836 181.87 33.8471 183.531 31.7219 185.747C29.5966 187.963 28.0474 190.666 27.21 193.62C20.12 218.67 2.36001 285.62 8.00001 309C15 338 16 346 31 348C46 350 62.5 357.5 90.5 348.5C118.5 339.5 163.5 324.5 173.5 315.5C183.5 306.5 170.5 285.5 161.5 286.5C152.5 287.5 153.5 290.5 151.5 294.5C149.5 298.5 75.5 300.5 68.5 298.5C63.74 297.14 77.22 235.09 86.35 195.44C89.62 181.21 77.87 170.45 64 175Z" fill="#F57C20"/>
<path d="M144.5 164.5C144.5 164.5 186.5 173.5 197.5 182.5C208.5 191.5 219.5 229.5 221.5 251.5C223.5 273.5 225.5 328.5 210.5 345.5C195.5 362.5 154.5 358.5 134.5 358.5C114.5 358.5 77.5 358.5 66.5 346.5C55.5 334.5 141.5 312.5 141.5 312.5L167.5 295.5L181.5 298.5L144.5 164.5Z" fill="#F57C20"/>
<path d="M95.5 163.5L42 180C42 180 49.5 191.5 54.5 223.5C59.5 255.5 62.5 294.5 61.5 297.5C60.5 300.5 91.5 305.5 106.5 304.5C121.5 303.5 148.5 299.5 152.5 296.5C156.5 293.5 163.5 290.5 165.5 291.5C167.5 292.5 170.06 297.84 170.06 297.84L182.5 303.5C182.5 303.5 183.5 276.5 182.5 248.5C181.59 223.08 187.36 190.07 191.39 182.41C192.125 181.472 193.007 180.658 194 180L178.21 173.54C174.073 171.85 169.814 170.476 165.47 169.43L147 165C147 165 119 200 97 164" fill="#1B0F4F"/>
<path d="M169.26 318.51C169.26 318.51 122.88 360.18 106.69 357.84C90.5 355.5 89.84 357.64 75.17 352.07C75.17 352.07 153 330.53 169.26 318.51Z" fill="#DD7026"/>
<path d="M165 291C165 291 178.5 290.5 180.5 292.5C182.5 294.5 183 294 183 294C183 294 183.5 307.5 182.5 309.5C181.5 311.5 175.09 313.71 175.09 313.71" fill="#FDB4A2"/>
<path d="M144.5 164.45C144.5 164.45 192.08 176.45 191.04 178.73C190 181.01 144.5 164.45 144.5 164.45Z" fill="#1B0F4F"/>
<path d="M149 165C118 203 91 165 91 165L97 163C97 163 107.5 177.5 120.5 177.5C133.5 177.5 143.5 164 143.5 164L149 165Z" fill="#F57C20"/>
<path d="M106 126C106 126 118 138 134 126Z" fill="#110D3B"/>
<path d="M107 126L110 128H129L132 126H107Z" fill="white"/>
<path d="M229 442H16C7.16344 442 0 449.163 0 458C0 466.837 7.16344 474 16 474H229C237.837 474 245 466.837 245 458C245 449.163 237.837 442 229 442Z" fill="#07C1A2"/>
</svg>
