<svg width="65" height="65" viewBox="0 0 65 65" fill="none" xmlns="http://www.w3.org/2000/svg">
<g filter="url(#filter0_d)">
<path d="M60.5173 6.56667C60.4379 4.89489 59.7381 3.31275 58.5547 2.12929C57.3712 0.94583 55.7891 0.246061 54.1173 0.166667C51.784 0.0666673 49.5506 0 47.384 0C30.6173 0 18.984 3.23333 12.5173 9.7C0.250638 21.9667 2.0173 39.3667 12.8173 49.3667H12.8506C17.3746 36.718 26.505 26.2424 38.4173 20.0333C37.7173 20.6333 22.7506 31.9667 20.0506 54.2C23.5506 55.8 27.384 56.7 31.2506 56.7C38.084 56.7 45.1173 54.0333 50.984 48.2C58.284 40.8667 61.4506 27 60.5173 6.56667Z" fill="#3D3D3D"/>
</g>
<defs>
<filter id="filter0_d" x="0" y="0" width="64.6766" height="64.7" filterUnits="userSpaceOnUse" color-interpolation-filters="sRGB">
<feFlood flood-opacity="0" result="BackgroundImageFix"/>
<feColorMatrix in="SourceAlpha" type="matrix" values="0 0 0 0 0 0 0 0 0 0 0 0 0 0 0 0 0 0 127 0"/>
<feOffset dy="4"/>
<feGaussianBlur stdDeviation="2"/>
<feColorMatrix type="matrix" values="0 0 0 0 0 0 0 0 0 0 0 0 0 0 0 0 0 0 0.25 0"/>
<feBlend mode="normal" in2="BackgroundImageFix" result="effect1_dropShadow"/>
<feBlend mode="normal" in="SourceGraphic" in2="effect1_dropShadow" result="shape"/>
</filter>
</defs>
</svg>
