<svg width="69" height="69" viewBox="0 0 69 69" fill="none" xmlns="http://www.w3.org/2000/svg">
<path d="M33.8018 0.000963903C17.127 0.0149942 1.79774 13.932 0.224555 30.5795C-1.46356 44.7586 6.5033 59.5787 19.5064 65.6014C31.582 71.5129 47.0813 69.6421 57.0966 60.5398C67.2867 51.7078 71.7392 36.6536 67.263 23.8103C63.0065 10.7074 50.4441 0.67617 36.6085 0.0689509C35.6742 0.00775509 34.7378 -0.00373771 33.8017 0.000926609L33.8018 0.000963903ZM34.4848 10.8122C46.7649 10.4545 58.0233 21.3026 58.1673 33.6075C58.6984 44.8643 50.255 55.9182 39.0551 57.8054C28.2172 59.9799 16.197 53.7062 12.4035 43.1676C8.31957 32.746 12.4861 19.567 22.4266 14.0971C26.0612 11.9596 30.269 10.8069 34.4848 10.8122ZM34.5089 17.3742C29.0325 21.3557 23.5565 25.3377 18.0802 29.3195C20.1719 35.762 22.2637 42.2044 24.3554 48.6468H44.6623L50.9375 29.3195L34.5089 17.3742Z" fill="#3D3D3D"/>
</svg>
